<?xml version="1.0" encoding="UTF-8" standalone="no"?>
<!-- Created with Inkscape (http://www.inkscape.org/) -->

<svg
   xmlns:dc="http://purl.org/dc/elements/1.1/"
   xmlns:cc="http://creativecommons.org/ns#"
   xmlns:rdf="http://www.w3.org/1999/02/22-rdf-syntax-ns#"
   xmlns:svg="http://www.w3.org/2000/svg"
   xmlns="http://www.w3.org/2000/svg"
   xmlns:sodipodi="http://sodipodi.sourceforge.net/DTD/sodipodi-0.dtd"
   xmlns:inkscape="http://www.inkscape.org/namespaces/inkscape"
   width="200"
   height="55"
   id="svg2"
   sodipodi:version="0.32"
   inkscape:version="0.48.3.1 r9886"
   version="1.0"
   sodipodi:docname="Canard - Canard Pilet (EADS, 2009).svg"
   inkscape:output_extension="org.inkscape.output.svg.inkscape"
   inkscape:export-filename="/tmp/hnc.png"
   inkscape:export-xdpi="90"
   inkscape:export-ydpi="90">
  <defs
     id="defs4">
    <linearGradient
       id="linearGradient4860">
      <stop
         style="stop-color:#e6e6e6;stop-opacity:0;"
         offset="1"
         id="stop4864" />
    </linearGradient>
    <linearGradient
       id="linearGradient3412">
      <stop
         style="stop-color:#e6e6e6;stop-opacity:1;"
         offset="0"
         id="stop3414" />
      <stop
         id="stop3422"
         offset="0"
         style="stop-color:#e6e6e6;stop-opacity:0.74901961;" />
      <stop
         id="stop3416"
         offset="1"
         style="stop-color:#e6e6e6;stop-opacity:0.49803922;" />
      <stop
         style="stop-color:#e6e6e6;stop-opacity:0;"
         offset="1"
         id="stop3418" />
    </linearGradient>
    <linearGradient
       id="linearGradient3402">
      <stop
         id="stop3404"
         offset="0"
         style="stop-color:#e6e6e6;stop-opacity:1;" />
      <stop
         style="stop-color:#e6e6e6;stop-opacity:0.49803922;"
         offset="1"
         id="stop3408" />
      <stop
         id="stop3406"
         offset="1"
         style="stop-color:#e6e6e6;stop-opacity:0;" />
    </linearGradient>
    <inkscape:perspective
       sodipodi:type="inkscape:persp3d"
       inkscape:vp_x="0 : 526.18109 : 1"
       inkscape:vp_y="0 : 1000 : 0"
       inkscape:vp_z="744.09448 : 526.18109 : 1"
       inkscape:persp3d-origin="372.04724 : 350.78739 : 1"
       id="perspective10" />
    <inkscape:perspective
       id="perspective2455"
       inkscape:persp3d-origin="372.04724 : 350.78739 : 1"
       inkscape:vp_z="744.09448 : 526.18109 : 1"
       inkscape:vp_y="0 : 1000 : 0"
       inkscape:vp_x="0 : 526.18109 : 1"
       sodipodi:type="inkscape:persp3d" />
    <filter
       inkscape:collect="always"
       id="filter4227"
       x="-0.2511628"
       width="1.5023257"
       y="-0.37241378"
       height="1.7448276"
       color-interpolation-filters="sRGB">
      <feGaussianBlur
         inkscape:collect="always"
         stdDeviation="1.1364216"
         id="feGaussianBlur4229" />
    </filter>
    <filter
       inkscape:collect="always"
       id="filter4231"
       x="-0.10046512"
       width="1.2009302"
       y="-0.14896551"
       height="1.297931"
       color-interpolation-filters="sRGB">
      <feGaussianBlur
         inkscape:collect="always"
         stdDeviation="0.45456864"
         id="feGaussianBlur4233" />
    </filter>
    <filter
       inkscape:collect="always"
       id="filter4505"
       x="-0.36000001"
       width="1.72"
       y="-0.36000001"
       height="1.72"
       color-interpolation-filters="sRGB">
      <feGaussianBlur
         inkscape:collect="always"
         stdDeviation="0.26516504"
         id="feGaussianBlur4507" />
    </filter>
    <filter
       inkscape:collect="always"
       id="filter4576"
       color-interpolation-filters="sRGB">
      <feGaussianBlur
         inkscape:collect="always"
         stdDeviation="0.30516929"
         id="feGaussianBlur4578" />
    </filter>
    <filter
       inkscape:collect="always"
       id="filter6180"
       x="-0.25222963"
       width="1.5044593"
       y="-0.70181662"
       height="2.4036331"
       color-interpolation-filters="sRGB">
      <feGaussianBlur
         inkscape:collect="always"
         stdDeviation="0.61416954"
         id="feGaussianBlur6182" />
    </filter>
    <filter
       inkscape:collect="always"
       id="filter6212"
       x="-0.10118424"
       width="1.2023685"
       y="-0.15197092"
       height="1.3039418"
       color-interpolation-filters="sRGB">
      <feGaussianBlur
         inkscape:collect="always"
         stdDeviation="2.5292962"
         id="feGaussianBlur6214" />
    </filter>
    <filter
       inkscape:collect="always"
       id="filter6220"
       x="-0.071287811"
       width="1.1425756"
       y="-0.10706878"
       height="1.2141376"
       color-interpolation-filters="sRGB">
      <feGaussianBlur
         inkscape:collect="always"
         stdDeviation="1.781977"
         id="feGaussianBlur6222" />
    </filter>
    <filter
       inkscape:collect="always"
       id="filter6722"
       x="-0.24649829"
       width="1.4929966"
       y="-0.6858694"
       height="2.3717387"
       color-interpolation-filters="sRGB">
      <feGaussianBlur
         inkscape:collect="always"
         stdDeviation="0.60021389"
         id="feGaussianBlur6724" />
    </filter>
    <filter
       inkscape:collect="always"
       id="filter6929"
       color-interpolation-filters="sRGB">
      <feGaussianBlur
         inkscape:collect="always"
         stdDeviation="0.57799859"
         id="feGaussianBlur6931" />
    </filter>
    <filter
       inkscape:collect="always"
       id="filter7797"
       x="-0.23633642"
       width="1.4726728"
       y="-0.14332858"
       height="1.2866571"
       color-interpolation-filters="sRGB">
      <feGaussianBlur
         inkscape:collect="always"
         stdDeviation="3.2778927"
         id="feGaussianBlur7799" />
    </filter>
    <filter
       inkscape:collect="always"
       id="filter7809"
       x="-0.11029033"
       width="1.2205807"
       y="-0.066886663"
       height="1.1337733"
       color-interpolation-filters="sRGB">
      <feGaussianBlur
         inkscape:collect="always"
         stdDeviation="1.5296833"
         id="feGaussianBlur7811" />
    </filter>
    <filter
       inkscape:collect="always"
       id="filter7835"
       color-interpolation-filters="sRGB">
      <feGaussianBlur
         inkscape:collect="always"
         stdDeviation="0.65639472"
         id="feGaussianBlur7837" />
    </filter>
    <filter
       inkscape:collect="always"
       id="filter8172"
       x="-0.080481239"
       width="1.1609625"
       y="-0.30056936"
       height="1.6011387"
       color-interpolation-filters="sRGB">
      <feGaussianBlur
         inkscape:collect="always"
         stdDeviation="1.582823"
         id="feGaussianBlur8174" />
    </filter>
    <filter
       inkscape:collect="always"
       id="filter8366"
       x="-0.54373032"
       width="2.0874608"
       y="-0.31172284"
       height="1.6234457"
       color-interpolation-filters="sRGB">
      <feGaussianBlur
         inkscape:collect="always"
         stdDeviation="1.3863531"
         id="feGaussianBlur8368" />
    </filter>
    <filter
       inkscape:collect="always"
       id="filter8877"
       x="-0.37733492"
       width="1.7546698"
       y="-0.62759572"
       height="2.2551916"
       color-interpolation-filters="sRGB">
      <feGaussianBlur
         inkscape:collect="always"
         stdDeviation="1.1748524"
         id="feGaussianBlur8879" />
    </filter>
    <filter
       inkscape:collect="always"
       id="filter8889"
       x="-0.14082107"
       width="1.2816421"
       y="-0.038121197"
       height="1.0762424"
       color-interpolation-filters="sRGB">
      <feGaussianBlur
         inkscape:collect="always"
         stdDeviation="1.4792464"
         id="feGaussianBlur8891" />
    </filter>
    <filter
       inkscape:collect="always"
       id="filter8916"
       x="-1.329959"
       width="3.6599181"
       y="-0.75107187"
       height="2.5021439"
       color-interpolation-filters="sRGB">
      <feGaussianBlur
         inkscape:collect="always"
         stdDeviation="2.0470114"
         id="feGaussianBlur8918" />
    </filter>
    <filter
       inkscape:collect="always"
       id="filter8920"
       x="-0.1970229"
       width="1.3940458"
       y="-0.16568474"
       height="1.3313695"
       color-interpolation-filters="sRGB">
      <feGaussianBlur
         inkscape:collect="always"
         stdDeviation="2.9916884"
         id="feGaussianBlur8922" />
    </filter>
    <filter
       inkscape:collect="always"
       id="filter8948"
       x="-0.37899923"
       width="1.7579985"
       y="-0.17559862"
       height="1.3511972"
       color-interpolation-filters="sRGB">
      <feGaussianBlur
         inkscape:collect="always"
         stdDeviation="2.228799"
         id="feGaussianBlur8950" />
    </filter>
    <filter
       inkscape:collect="always"
       id="filter8954"
       x="-0.26989043"
       width="1.5397809"
       y="-0.21607018"
       height="1.4321404"
       color-interpolation-filters="sRGB">
      <feGaussianBlur
         inkscape:collect="always"
         stdDeviation="3.0911379"
         id="feGaussianBlur8956" />
    </filter>
    <filter
       inkscape:collect="always"
       id="filter8964"
       color-interpolation-filters="sRGB">
      <feGaussianBlur
         inkscape:collect="always"
         stdDeviation="1.1611322"
         id="feGaussianBlur8966" />
    </filter>
    <filter
       inkscape:collect="always"
       id="filter8978"
       color-interpolation-filters="sRGB">
      <feGaussianBlur
         inkscape:collect="always"
         stdDeviation="1.7622271"
         id="feGaussianBlur8980" />
    </filter>
    <filter
       inkscape:collect="always"
       id="filter8992"
       x="-0.24696887"
       width="1.4939377"
       y="-0.23415233"
       height="1.4683048"
       color-interpolation-filters="sRGB">
      <feGaussianBlur
         inkscape:collect="always"
         stdDeviation="1.9261041"
         id="feGaussianBlur8994" />
    </filter>
    <filter
       inkscape:collect="always"
       id="filter9012"
       x="-0.12101852"
       width="1.2420371"
       y="-0.11899848"
       height="1.2379971"
       color-interpolation-filters="sRGB">
      <feGaussianBlur
         inkscape:collect="always"
         stdDeviation="2.2912234"
         id="feGaussianBlur9014" />
    </filter>
    <filter
       inkscape:collect="always"
       id="filter9161"
       color-interpolation-filters="sRGB">
      <feGaussianBlur
         inkscape:collect="always"
         stdDeviation="0.51041902"
         id="feGaussianBlur9163" />
    </filter>
    <filter
       inkscape:collect="always"
       id="filter3485"
       color-interpolation-filters="sRGB">
      <feGaussianBlur
         inkscape:collect="always"
         stdDeviation="0.26050552"
         id="feGaussianBlur3487" />
    </filter>
    <filter
       inkscape:collect="always"
       id="filter3499"
       color-interpolation-filters="sRGB">
      <feGaussianBlur
         inkscape:collect="always"
         stdDeviation="0.41335277"
         id="feGaussianBlur3501" />
    </filter>
    <filter
       inkscape:collect="always"
       id="filter3505"
       color-interpolation-filters="sRGB">
      <feGaussianBlur
         inkscape:collect="always"
         stdDeviation="0.20896919"
         id="feGaussianBlur3507" />
    </filter>
    <filter
       inkscape:collect="always"
       id="filter3511"
       color-interpolation-filters="sRGB">
      <feGaussianBlur
         inkscape:collect="always"
         stdDeviation="0.65021009"
         id="feGaussianBlur3513" />
    </filter>
    <filter
       inkscape:collect="always"
       id="filter3519"
       color-interpolation-filters="sRGB">
      <feGaussianBlur
         inkscape:collect="always"
         stdDeviation="0.84231364"
         id="feGaussianBlur3521" />
    </filter>
    <filter
       inkscape:collect="always"
       id="filter3555"
       color-interpolation-filters="sRGB">
      <feGaussianBlur
         inkscape:collect="always"
         stdDeviation="0.2607085"
         id="feGaussianBlur3557" />
    </filter>
    <filter
       inkscape:collect="always"
       id="filter3565"
       color-interpolation-filters="sRGB">
      <feGaussianBlur
         inkscape:collect="always"
         stdDeviation="0.12201468"
         id="feGaussianBlur3567" />
    </filter>
    <filter
       inkscape:collect="always"
       id="filter3571"
       color-interpolation-filters="sRGB">
      <feGaussianBlur
         inkscape:collect="always"
         stdDeviation="0.33217174"
         id="feGaussianBlur3573" />
    </filter>
    <filter
       inkscape:collect="always"
       id="filter3577"
       color-interpolation-filters="sRGB">
      <feGaussianBlur
         inkscape:collect="always"
         stdDeviation="0.2604609"
         id="feGaussianBlur3579" />
    </filter>
    <filter
       inkscape:collect="always"
       id="filter3587"
       color-interpolation-filters="sRGB">
      <feGaussianBlur
         inkscape:collect="always"
         stdDeviation="0.27031733"
         id="feGaussianBlur3589" />
    </filter>
    <filter
       inkscape:collect="always"
       id="filter3593"
       color-interpolation-filters="sRGB">
      <feGaussianBlur
         inkscape:collect="always"
         stdDeviation="0.34492317"
         id="feGaussianBlur3595" />
    </filter>
    <filter
       inkscape:collect="always"
       id="filter3601"
       color-interpolation-filters="sRGB">
      <feGaussianBlur
         inkscape:collect="always"
         stdDeviation="0.42708655"
         id="feGaussianBlur3603" />
    </filter>
    <filter
       inkscape:collect="always"
       id="filter3611"
       x="-0.0063806414"
       width="1.0127614"
       y="-0.10057718"
       height="1.2011544"
       color-interpolation-filters="sRGB">
      <feGaussianBlur
         inkscape:collect="always"
         stdDeviation="0.45734055"
         id="feGaussianBlur3613" />
    </filter>
    <filter
       inkscape:collect="always"
       id="filter3627"
       color-interpolation-filters="sRGB">
      <feGaussianBlur
         inkscape:collect="always"
         stdDeviation="0.12188942"
         id="feGaussianBlur3629" />
    </filter>
    <filter
       inkscape:collect="always"
       id="filter3643"
       color-interpolation-filters="sRGB">
      <feGaussianBlur
         inkscape:collect="always"
         stdDeviation="0.0527359"
         id="feGaussianBlur3645" />
    </filter>
    <filter
       inkscape:collect="always"
       id="filter3705"
       color-interpolation-filters="sRGB">
      <feGaussianBlur
         inkscape:collect="always"
         stdDeviation="0.2691545"
         id="feGaussianBlur3707" />
    </filter>
    <filter
       inkscape:collect="always"
       id="filter3711"
       color-interpolation-filters="sRGB">
      <feGaussianBlur
         inkscape:collect="always"
         stdDeviation="0.17507085"
         id="feGaussianBlur3713" />
    </filter>
    <filter
       inkscape:collect="always"
       id="filter3737"
       color-interpolation-filters="sRGB">
      <feGaussianBlur
         inkscape:collect="always"
         stdDeviation="0.17580025"
         id="feGaussianBlur3739" />
    </filter>
    <filter
       inkscape:collect="always"
       id="filter3773"
       color-interpolation-filters="sRGB">
      <feGaussianBlur
         inkscape:collect="always"
         stdDeviation="0.12449251"
         id="feGaussianBlur3775" />
    </filter>
    <filter
       inkscape:collect="always"
       id="filter3965"
       color-interpolation-filters="sRGB">
      <feGaussianBlur
         inkscape:collect="always"
         stdDeviation="1.0425683"
         id="feGaussianBlur3967" />
    </filter>
    <filter
       inkscape:collect="always"
       id="filter4025"
       color-interpolation-filters="sRGB">
      <feGaussianBlur
         inkscape:collect="always"
         stdDeviation="0.42049677"
         id="feGaussianBlur4027" />
    </filter>
    <filter
       inkscape:collect="always"
       id="filter4057"
       x="-0.012967483"
       width="1.0259351"
       y="-0.16083987"
       height="1.3216797"
       color-interpolation-filters="sRGB">
      <feGaussianBlur
         inkscape:collect="always"
         stdDeviation="0.21912157"
         id="feGaussianBlur4059" />
    </filter>
    <filter
       inkscape:collect="always"
       id="filter4069"
       x="-0.013341382"
       width="1.0266829"
       y="-0.11935196"
       height="1.2387038"
       color-interpolation-filters="sRGB">
      <feGaussianBlur
         inkscape:collect="always"
         stdDeviation="0.17754403"
         id="feGaussianBlur4071" />
    </filter>
    <filter
       inkscape:collect="always"
       id="filter4073"
       color-interpolation-filters="sRGB">
      <feGaussianBlur
         inkscape:collect="always"
         stdDeviation="0.2948754"
         id="feGaussianBlur4075" />
    </filter>
    <filter
       inkscape:collect="always"
       id="filter4077"
       color-interpolation-filters="sRGB">
      <feGaussianBlur
         inkscape:collect="always"
         stdDeviation="0.18496458"
         id="feGaussianBlur4079" />
    </filter>
    <filter
       inkscape:collect="always"
       id="filter4081"
       color-interpolation-filters="sRGB">
      <feGaussianBlur
         inkscape:collect="always"
         stdDeviation="0.40556712"
         id="feGaussianBlur4083" />
    </filter>
    <filter
       inkscape:collect="always"
       id="filter4093"
       color-interpolation-filters="sRGB">
      <feGaussianBlur
         inkscape:collect="always"
         stdDeviation="0.23515334"
         id="feGaussianBlur4095" />
    </filter>
    <filter
       inkscape:collect="always"
       id="filter4097"
       color-interpolation-filters="sRGB">
      <feGaussianBlur
         inkscape:collect="always"
         stdDeviation="0.63187896"
         id="feGaussianBlur4099" />
    </filter>
    <filter
       inkscape:collect="always"
       id="filter4101"
       color-interpolation-filters="sRGB">
      <feGaussianBlur
         inkscape:collect="always"
         stdDeviation="0.2996456"
         id="feGaussianBlur4103" />
    </filter>
    <filter
       inkscape:collect="always"
       id="filter4105"
       x="-0.020730337"
       width="1.0414608"
       y="-0.13666667"
       height="1.2733333"
       color-interpolation-filters="sRGB">
      <feGaussianBlur
         inkscape:collect="always"
         stdDeviation="0.45679694"
         id="feGaussianBlur4107" />
    </filter>
    <filter
       inkscape:collect="always"
       id="filter4109"
       color-interpolation-filters="sRGB">
      <feGaussianBlur
         inkscape:collect="always"
         stdDeviation="0.62694768"
         id="feGaussianBlur4111" />
    </filter>
    <filter
       inkscape:collect="always"
       id="filter4967"
       x="-0.075156622"
       width="1.1503133"
       y="-0.17937294"
       height="1.3587459"
       color-interpolation-filters="sRGB">
      <feGaussianBlur
         inkscape:collect="always"
         stdDeviation="0.78130257"
         id="feGaussianBlur4969" />
    </filter>
    <filter
       inkscape:collect="always"
       id="filter4971"
       x="-0.040431246"
       width="1.0808625"
       y="-0.14452073"
       height="1.2890415"
       color-interpolation-filters="sRGB">
      <feGaussianBlur
         inkscape:collect="always"
         stdDeviation="0.78130257"
         id="feGaussianBlur4973" />
    </filter>
    <filter
       inkscape:collect="always"
       id="filter4993"
       x="-0.34137931"
       width="1.6827586"
       y="-0.38076922"
       height="1.7615384"
       color-interpolation-filters="sRGB">
      <feGaussianBlur
         inkscape:collect="always"
         stdDeviation="1.2255527"
         id="feGaussianBlur4995" />
    </filter>
    <filter
       inkscape:collect="always"
       id="filter4997"
       x="-0.078034684"
       width="1.1560694"
       y="-0.25961539"
       height="1.5192308"
       color-interpolation-filters="sRGB">
      <feGaussianBlur
         inkscape:collect="always"
         stdDeviation="1.1817227"
         id="feGaussianBlur4999" />
    </filter>
    <filter
       inkscape:collect="always"
       id="filter5001"
       x="-0.078788802"
       width="1.1575776"
       y="-0.25160348"
       height="1.503207"
       color-interpolation-filters="sRGB">
      <feGaussianBlur
         inkscape:collect="always"
         stdDeviation="2.1035278"
         id="feGaussianBlur5003" />
    </filter>
    <filter
       inkscape:collect="always"
       id="filter5019"
       color-interpolation-filters="sRGB">
      <feGaussianBlur
         inkscape:collect="always"
         stdDeviation="0.22718151"
         id="feGaussianBlur5021" />
    </filter>
    <filter
       inkscape:collect="always"
       id="filter5195"
       x="-0.078831002"
       width="1.157662"
       y="-0.25117412"
       height="1.5023482"
       color-interpolation-filters="sRGB">
      <feGaussianBlur
         inkscape:collect="always"
         stdDeviation="4.9003995"
         id="feGaussianBlur5197" />
    </filter>
    <filter
       inkscape:collect="always"
       id="filter5199"
       x="-0.04060274"
       width="1.0812055"
       y="-0.11488372"
       height="1.2297674"
       color-interpolation-filters="sRGB">
      <feGaussianBlur
         inkscape:collect="always"
         stdDeviation="2.5945377"
         id="feGaussianBlur5201" />
    </filter>
    <filter
       inkscape:collect="always"
       id="filter5203"
       color-interpolation-filters="sRGB">
      <feGaussianBlur
         inkscape:collect="always"
         stdDeviation="1.147045"
         id="feGaussianBlur5205" />
    </filter>
    <filter
       inkscape:collect="always"
       id="filter5207"
       x="-0.13055331"
       width="1.2611066"
       y="-0.038950477"
       height="1.077901"
       color-interpolation-filters="sRGB">
      <feGaussianBlur
         inkscape:collect="always"
         stdDeviation="0.94195627"
         id="feGaussianBlur5209" />
    </filter>
    <filter
       inkscape:collect="always"
       id="filter5211"
       x="-0.034754641"
       width="1.0695093"
       y="-0.21928869"
       height="1.4385774"
       color-interpolation-filters="sRGB">
      <feGaussianBlur
         inkscape:collect="always"
         stdDeviation="1.4981875"
         id="feGaussianBlur5213" />
    </filter>
    <filter
       inkscape:collect="always"
       id="filter5251"
       x="-0.0975063"
       width="1.1950126"
       y="-0.15598388"
       height="1.3119678"
       color-interpolation-filters="sRGB">
      <feGaussianBlur
         inkscape:collect="always"
         stdDeviation="2.0449846"
         id="feGaussianBlur5253" />
    </filter>
    <filter
       inkscape:collect="always"
       id="filter5263"
       x="-0.11788469"
       width="1.2357694"
       y="-0.38048196"
       height="1.7609639"
       color-interpolation-filters="sRGB">
      <feGaussianBlur
         inkscape:collect="always"
         stdDeviation="9.9555059"
         id="feGaussianBlur5265" />
    </filter>
    <filter
       inkscape:collect="always"
       id="filter5267"
       x="-0.15262753"
       width="1.3052551"
       y="-0.5613451"
       height="2.1226902"
       color-interpolation-filters="sRGB">
      <feGaussianBlur
         inkscape:collect="always"
         stdDeviation="2.3514045"
         id="feGaussianBlur5269" />
    </filter>
    <filter
       inkscape:collect="always"
       id="filter5275"
       x="-0.13035183"
       width="1.2607036"
       y="-0.29073441"
       height="1.5814688"
       color-interpolation-filters="sRGB">
      <feGaussianBlur
         inkscape:collect="always"
         stdDeviation="3.3040353"
         id="feGaussianBlur5277" />
    </filter>
    <filter
       inkscape:collect="always"
       id="filter5279"
       x="-0.11327955"
       width="1.226559"
       y="-0.4379448"
       height="1.8758897"
       color-interpolation-filters="sRGB">
      <feGaussianBlur
         inkscape:collect="always"
         stdDeviation="1.939144"
         id="feGaussianBlur5281" />
    </filter>
    <filter
       inkscape:collect="always"
       id="filter5283"
       x="-0.13972291"
       width="1.2794458"
       y="-0.25290278"
       height="1.5058056"
       color-interpolation-filters="sRGB">
      <feGaussianBlur
         inkscape:collect="always"
         stdDeviation="1.4567458"
         id="feGaussianBlur5285" />
    </filter>
    <filter
       inkscape:collect="always"
       id="filter5287"
       x="-0.16879866"
       width="1.3375973"
       y="-0.41509005"
       height="1.83018"
       color-interpolation-filters="sRGB">
      <feGaussianBlur
         inkscape:collect="always"
         stdDeviation="1.168893"
         id="feGaussianBlur5289" />
    </filter>
    <filter
       inkscape:collect="always"
       id="filter5291"
       x="-0.10977951"
       width="1.219559"
       y="-0.49951476"
       height="1.9990295"
       color-interpolation-filters="sRGB">
      <feGaussianBlur
         inkscape:collect="always"
         stdDeviation="2.127758"
         id="feGaussianBlur5293" />
    </filter>
    <filter
       inkscape:collect="always"
       id="filter5306"
       x="-0.092752106"
       width="1.1855042"
       y="-0.16991659"
       height="1.3398333"
       color-interpolation-filters="sRGB">
      <feGaussianBlur
         inkscape:collect="always"
         stdDeviation="3.0147783"
         id="feGaussianBlur5308" />
    </filter>
    <filter
       inkscape:collect="always"
       id="filter5316"
       x="-0.092225321"
       width="1.1844506"
       y="-0.1717134"
       height="1.3434268"
       color-interpolation-filters="sRGB">
      <feGaussianBlur
         inkscape:collect="always"
         stdDeviation="2.3701872"
         id="feGaussianBlur5318" />
    </filter>
    <filter
       inkscape:collect="always"
       id="filter5320"
       x="-0.10358809"
       width="1.2071762"
       y="-0.14259137"
       height="1.2851827"
       color-interpolation-filters="sRGB">
      <feGaussianBlur
         inkscape:collect="always"
         stdDeviation="2.2025089"
         id="feGaussianBlur5322" />
    </filter>
    <filter
       inkscape:collect="always"
       id="filter5330"
       x="-0.075238816"
       width="1.1504776"
       y="-0.29623884"
       height="1.5924777"
       color-interpolation-filters="sRGB">
      <feGaussianBlur
         inkscape:collect="always"
         stdDeviation="2.1826285"
         id="feGaussianBlur5332" />
    </filter>
    <filter
       inkscape:collect="always"
       id="filter5342"
       x="-0.066198349"
       width="1.1323967"
       y="-0.64080012"
       height="2.2816002"
       color-interpolation-filters="sRGB">
      <feGaussianBlur
         inkscape:collect="always"
         stdDeviation="2.8046218"
         id="feGaussianBlur5344" />
    </filter>
    <filter
       inkscape:collect="always"
       id="filter5356"
       x="-0.16266917"
       width="1.3253382"
       y="-0.45748025"
       height="1.9149605"
       color-interpolation-filters="sRGB">
      <feGaussianBlur
         inkscape:collect="always"
         stdDeviation="3.4186945"
         id="feGaussianBlur5358" />
    </filter>
    <filter
       inkscape:collect="always"
       id="filter5362"
       x="-0.1803474"
       width="1.3606948"
       y="-0.71531069"
       height="2.4306214"
       color-interpolation-filters="sRGB">
      <feGaussianBlur
         inkscape:collect="always"
         stdDeviation="3.8811066"
         id="feGaussianBlur5364" />
    </filter>
    <filter
       inkscape:collect="always"
       id="filter5368"
       x="-0.077354945"
       width="1.1547099"
       y="-0.26743367"
       height="1.5348673"
       color-interpolation-filters="sRGB">
      <feGaussianBlur
         inkscape:collect="always"
         stdDeviation="1.498228"
         id="feGaussianBlur5370" />
    </filter>
    <filter
       inkscape:collect="always"
       id="filter6521"
       color-interpolation-filters="sRGB">
      <feGaussianBlur
         inkscape:collect="always"
         stdDeviation="2.3111271"
         id="feGaussianBlur6523" />
    </filter>
    <filter
       inkscape:collect="always"
       id="filter7239"
       color-interpolation-filters="sRGB">
      <feGaussianBlur
         inkscape:collect="always"
         stdDeviation="1.1739189"
         id="feGaussianBlur7241" />
    </filter>
    <filter
       inkscape:collect="always"
       id="filter7245"
       x="-0.098891154"
       width="1.1977823"
       y="-0.19997942"
       height="1.3999588"
       color-interpolation-filters="sRGB">
      <feGaussianBlur
         inkscape:collect="always"
         stdDeviation="14.327675"
         id="feGaussianBlur7247" />
    </filter>
  </defs>
  <sodipodi:namedview
     id="base"
     pagecolor="#ffffff"
     bordercolor="#666666"
     borderopacity="1.0"
     inkscape:pageopacity="0.0"
     inkscape:pageshadow="2"
     inkscape:zoom="2.38"
     inkscape:cx="163.27967"
     inkscape:cy="73.525161"
     inkscape:document-units="px"
     inkscape:current-layer="layer1"
     showgrid="false"
     inkscape:window-width="1920"
     inkscape:window-height="1153"
     inkscape:window-x="-3"
     inkscape:window-y="24"
     inkscape:window-maximized="1" />
  <metadata
     id="metadata7">
    <rdf:RDF>
      <cc:Work
         rdf:about="">
        <dc:format>image/svg+xml</dc:format>
        <dc:type
           rdf:resource="http://purl.org/dc/dcmitype/StillImage" />
        <dc:title></dc:title>
      </cc:Work>
    </rdf:RDF>
  </metadata>
  <g
     inkscape:label="Calque 1"
     inkscape:groupmode="layer"
     id="layer1"
     transform="translate(0,-245)">
    <g
       id="g3698"
       transform="matrix(0.81060231,0,0,0.81060231,23.767413,56.819308)">
      <path
         transform="matrix(-0.23467916,0.0223953,-0.04947653,-0.03202457,-320.10912,294.59422)"
         sodipodi:nodetypes="ccc"
         id="path3818"
         d="m -1448.7104,-726.27644 c 0,0 267.6732,-7.17887 152.8096,-29.74147 10e-5,0 -128.1961,-23.588 -128.1961,-23.588"
         style="fill:#b3b3b3;fill-opacity:0.78431373;fill-rule:evenodd;stroke:none;filter:url(#filter7245)"
         inkscape:connector-curvature="0" />
      <path
         transform="matrix(0.28318084,0,0,0.28300253,153.26063,218.25214)"
         sodipodi:nodetypes="ccc"
         id="path3996"
         d="m -59.056072,261.78059 c 0,0 267.673152,-7.17887 152.80958,-29.74147 4e-5,0 -128.19608,-23.588 -128.19608,-23.588"
         style="fill:#b3b3b3;fill-opacity:0.78431373;fill-rule:evenodd;stroke:none;filter:url(#filter7239)"
         inkscape:connector-curvature="0" />
      <path
         transform="matrix(0.28318084,0,0,0.28300253,153.26063,218.25214)"
         sodipodi:nodetypes="ccccccccccccc"
         id="path4174"
         d="m 9.1198285,93.977525 c -6.045,13.791395 -4.0651,29.586695 -0.6243,43.790195 4.6978995,17.4603 11.9792995,34.3871 22.2230995,49.3248 4.9915,5.576 12.5597,8.3407 16.9471,14.62 8.67789,10.7978 6.4872,26.0202 1.00804,37.7213 -1.00201,4.3671 -6.52684,9.1778 -6.54244,12.5252 9.60766,-0.7055 18.84356,-4.5983 27.11127,-9.4099 5.3175,-3.0754 10.41001,-8.4883 8.95635,-15.1614 -1.92846,-14.9502 -7.34402,-29.1769 -12.51059,-43.2541 -4.36072,-8.0895 -8.56792,-16.2667 -13.13199,-24.2437 -10.10444,3.2372 -21.64024,1.7277 -28.04404,-7.4711 -7.9595,-13.401 -15.0640995,-30.6729 -15.3890995,-46.464 -0.1877,-3.9897 -0.1608,-7.987195 -0.0034,-11.977295 z"
         style="fill:#ffffff;fill-rule:evenodd;stroke:none;filter:url(#filter6929)"
         inkscape:connector-curvature="0" />
      <g
         transform="matrix(0.28318084,0,0,0.28300253,76.619555,240.39451)"
         id="g4176">
        <path
           style="fill:#696647;fill-opacity:1;fill-rule:evenodd;stroke:none;filter:url(#filter7835)"
           d="m 387.67583,40.581819 c 0,0 -3.21429,0.71429 -10.35715,-16.07143 -7.14285,-16.7857098 -16.78571,-37.85714 -48.92857,-43.57142 -32.14285,-5.71429 -54.64285,31.78571 -54.64285,31.78571 0,0 -10,18.57143 -9.28572,36.78571 0.71429,18.21429 12.14286,31.07143 13.92857,43.21429 1.78572,12.142861 3.21429,22.500001 2.14286,25.000001 -5.91264,6.86919 16.97155,-6.67028 22.14286,-8.57143 0,0 -14.64286,-17.500001 -22.5,-48.928571 -7.85715,-31.42857 0.35714,-41.78571 0.35714,-41.78571 0,0 -0.35714,29.64285 10,50.71428 10.35715,21.07143 22.14286,16.78572 22.14286,16.78572 0,0 11.42857,-1.42858 11.78571,-2.5 0.35714,-1.07143 0.71429,-14.64286 0.71429,-14.64286 0,0 4.39458,-3.2372 11.07143,-4.64286 6.78571,-1.42857 11.42857,-5.71428 17.14286,-4.64286 4.92688,0.92379 8.92857,-2.5 8.92857,-2.5 l 25.35714,-16.42857 z"
           id="path4178"
           sodipodi:nodetypes="csscssccscscscsscc"
           inkscape:connector-curvature="0" />
        <path
           style="fill:#000000;fill-opacity:0.35416667;fill-rule:evenodd;stroke:none;filter:url(#filter8172)"
           d="m 473.57144,33.57143 c -4.3537,1.404391 -8.5999,3.138178 -13.01325,4.354376 -4.5147,1.601609 -9.22041,3.066952 -14.06516,2.838596 -1.01834,0.02834 -3.02597,1.382863 -3.47795,0.02974 1.92084,-1.296186 4.0085,-3.264753 6.5209,-2.483466 2.44515,0.251651 2.73432,-2.930422 5.14744,-2.858208 1.97483,-0.381663 3.57808,-1.54575 5.17789,-2.671209 1.92057,-1.167262 4.18714,-1.432473 6.37808,-1.584121 1.61546,0.003 1.83123,-3.304733 3.2448,-1.056932 1.55135,1.273744 2.96599,-1.562743 4.73785,-1.305106 4.17107,-0.57329 7.82808,2.120978 11.84962,2.656582 1.17279,0.392618 4.33047,-0.296456 4.13554,1.077334 -2.04974,0.06046 -4.08442,-0.367655 -6.14007,-0.349321 -3.04587,-0.07906 -6.13549,-0.23458 -9.15803,0.0479 -0.57848,0.284869 -0.8317,0.93161 -1.33766,1.303838 z"
           id="path4180"
           transform="matrix(1,0,0,0.8304514,-126.34717,31.461879)"
           inkscape:connector-curvature="0" />
        <path
           style="fill:#000000;fill-opacity:0.45;fill-rule:evenodd;stroke:none;filter:url(#filter8366)"
           d="m 450.71429,51.785714 c 0,0.923843 0,4.069192 0,6.071428 0,1.904762 -4.01062,0.851836 -5.71429,0 -1.68359,-0.841793 2.37249,-2.959269 3.21429,-4.642857 1.35711,-2.714231 2.34592,-1.839449 1.42857,-4.285714 -0.92015,-2.453715 0.87892,2.536293 1.07143,2.857143 z"
           id="path4182"
           transform="matrix(0.7665465,0,0,1.2676797,-21.126335,10.098789)"
           inkscape:connector-curvature="0" />
        <path
           style="fill:#ffffff;fill-opacity:0.19583333;fill-rule:evenodd;stroke:none;filter:url(#filter9012)"
           d="m 284.36712,39.800709 c 0,3.92676 0.50108,-8.28716 2.85714,-11.42858 1.7957,-2.39426 3.84726,-4.2044 5.71429,-6.07142 2.12405,-2.12405 5.79123,-3.21429 8.92857,-3.21429 3.80413,0 8.09572,0.02371 11.78571,-0.71429 2.96887,-0.59377 6.59934,0 9.64286,0 3.38898,0 5.09514,-1.76228 4.28571,-4.99999 -0.65654,-2.62617 -0.22653,-5.0880798 -1.42857,-7.1428598 -1.23173,-2.10554 0.83648,-5.54059001 -3.0973,-5 -1.96976,0.27069 -1.59544,-4.02833 -2.25984,-5.35714 -0.54332,-1.08665 -6.64763,-0.35715 -7.85714,-0.35715 -2.72169,0 -4.67781,-1.07143 -7.5,-1.07143 -2.7646,0 -5.06677,-0.34045 -7.85715,0.35715 -2.25677,0.56419 -3.93968,3.93968 -5.35714,5.35713999 -1.82844,1.82844001 -2.44829,4.81201001 -3.92857,6.78571001 -1.13745,1.5166 -2.44576,4.4259098 -2.85714,6.0714298 -0.64712,2.58847 -2.14286,3.28016 -2.14286,6.42857 0,1.69448 -0.37943,4.01771 -0.71429,5.35715 -0.53966,2.15865 0,5.28111 0,7.5 0,2.22957 -0.20463,4.23358 0.71429,6.07143 0.2662,0.53239 0.71428,0.95238 1.07143,1.42857 z"
           id="path4184"
           sodipodi:nodetypes="csssssssssssssssssssc"
           inkscape:connector-curvature="0" />
        <path
           style="fill:#000000;fill-opacity:0.70588235;fill-rule:evenodd;stroke:none;filter:url(#filter8877)"
           d="m 359.87396,-2.1008408 c -0.23016,0.4315943 0.14359,0.9694429 0.5921,1.0459676 0.53051,0.20548304 1.14013,0.31364583 1.68651,0.10336975 0.36034,-0.33386015 0.19245,-0.85982905 0.26754,-1.28751615 0.0129,-0.7100486 0.44963,-1.3924416 1.09676,-1.6892962 1.00249,-0.6411209 2.14988,-0.9941747 3.20347,-1.5356173 0.3813,0.013499 0.0794,-0.4079786 -0.15091,-0.2195112 -1.04092,-0.038012 -2.11273,0.2023996 -2.97185,0.8094108 -0.8693,0.490374 -1.78175,0.9228962 -2.54789,1.5735936 -0.30436,0.2197555 -0.56458,0.5061099 -0.69821,0.8604228 -0.10242,0.1704372 -0.26419,0.338653 -0.47752,0.3391763 z"
           id="path4186"
           transform="matrix(0.9960046,0.08930151,-0.1065504,1.1883867,-11.800065,-9.6860108)"
           inkscape:connector-curvature="0" />
        <path
           style="fill:#000000;fill-opacity:0.39215686;fill-rule:evenodd;stroke:none;filter:url(#filter8889)"
           d="m 283.3167,-0.59845081 c 1.43214,1.45631 1.55441,6.24540001 1.68067,9.03361001 -13.71568,21.4163898 -9.08606,46.0826298 4.83193,79.6218498 -3.84577,-0.12349 -9.51053,7.45147 -11.7647,3.15126 -15.95462,-45.04443 -21.65081,-52.21509 5.2521,-91.80671981 z"
           id="path4188"
           sodipodi:nodetypes="ccccc"
           inkscape:connector-curvature="0" />
        <path
           style="fill:#000000;fill-opacity:0.23529412;fill-rule:evenodd;stroke:none;filter:url(#filter8920)"
           d="m 282.68643,42.258689 c 0.82173,12.04264 15.22139,51.13347 36.44273,41.95281 -15.18797,-6.18709 -36.22321,-30.71769 -36.44273,-41.95281 z"
           id="path4190"
           sodipodi:nodetypes="ccc"
           inkscape:connector-curvature="0" />
        <path
           style="fill:#000000;fill-opacity:0.67916667;fill-rule:evenodd;stroke:none;filter:url(#filter8916)"
           d="m 493.69747,15.336134 c -2.36528,-1.331694 -2.43972,-3.879747 -2.10084,-6.3025208 3.17763,-1.713419 4.98269,6.4728768 2.10084,6.3025208 z"
           id="path4192"
           sodipodi:nodetypes="ccc"
           transform="matrix(1.5687216,0,0,1.4175288,-406.89538,19.887929)"
           inkscape:connector-curvature="0" />
        <path
           style="fill:#000000;fill-opacity:0.31372549;fill-rule:evenodd;stroke:none;filter:url(#filter8948)"
           d="m 306.84612,30.283899 c -1.67141,5.94664 -0.0819,7.8883 3.36134,11.97479 3.37979,4.15974 4.68983,7.84458 10.08404,8.40336 -0.88733,-3.23135 -3.79556,-4.89832 -4.41177,-8.19328 0.3333,-6.76566 8.16709,-7.60551 -2.94117,-12.18487 -5.28387,-2.16788 -3.04076,-5.2024 -3.57144,-10.08403 -2.23439,2.10366 -1.44055,6.73702 -2.521,10.08403 z"
           id="path4194"
           sodipodi:nodetypes="ccccccc"
           inkscape:connector-curvature="0" />
        <path
           style="fill:#000000;fill-opacity:0.3;fill-rule:evenodd;stroke:none;filter:url(#filter8954)"
           d="m 288.70668,29.659759 c -0.31723,1.07391 -1.90744,3.98716 -2.97104,5.05076 -1.05901,1.05901 -0.89131,4.94572 -0.89131,6.53628 0,4.10334 -0.28387,6.79249 2.07973,10.10153 2.10142,2.942 5.12405,3.69448 7.72469,5.64497 0.85331,0.63998 1.98069,0.79227 2.97104,1.18841 0.37912,0.15165 0.79228,0.19807 1.18841,0.29711 2.0923,0.52307 7.2765,2.04067 8.91311,3.26814 2.76439,2.07329 7.16387,3.66455 2.67394,0.2971 -1.63967,-1.22975 -3.45453,-3.18511 -4.75366,-4.15945 -1.81385,-1.36039 -3.3452,-3.93941 -5.05076,-5.64497 -2.36875,-2.36875 -4.15946,-8.09937 -4.15946,-11.28994 0,-3.00914 -0.24888,-4.36013 -1.48551,-6.83339 -0.81485,-1.62969 -3.32501,-3.14802 -4.75366,-3.86235 -0.47702,-0.2385 -0.99035,-0.39613 -1.48552,-0.5942 z"
           id="path4196"
           inkscape:connector-curvature="0" />
        <path
           style="fill:#ffffff;fill-opacity:0.11764706;fill-rule:evenodd;stroke:none;filter:url(#filter8964)"
           d="m 328.04744,16.920339 c 1.4376,-4.09959 5.23411,-7.1033598 9.21022,-8.6159998 8.28746,-1.39116 13.43182,4.8449898 19.01463,9.8044198 2.76728,2.63088 6.0666,4.00921 8.61601,6.83338 2.9149,2.27474 5.12379,8.22054 9.21021,5.64497 5.1954,-3.0471 -11.39647,-19.51915 -15.15228,-25.5509098 -3.63148,-5.01466001 -1.95989,3.02316 -4.45656,0.2971 -1.20647,-1.60863 -2.14731,-3.40332 -2.97104,-5.05076001 -0.81102,-1.62203999 -0.2971,2.89964001 -0.2971,4.15945001 0,0.10656 -1.798,-4.09671001 -5.05076,-6.53628 -2.31106,-1.7333 -0.29711,-0.15474 -0.29711,2.67392999 0,2.58408001 -2.2012,-2.63783999 -3.56524,-4.45655999 -1.22335,-1.63113 -1.55699,-3.42229 -2.67393,-1.18841 -0.47973,0.95945 -0.10599,3.69206 -0.29711,4.45655999 -0.0901,0.36037 -2.73727,-2.44016999 -4.75366,-4.45655999 -4.98085,-2.17878 3.30008,4.41304999 -10.69573,0.2971 -2.30893,-0.57723 -3.26814,0.53494 -3.26814,2.37683 2.78078,5.65585 7.28085,8.3516 7.13049,15.1522898 0,0.71415 -0.099,3.56525 0.2971,4.15945 z"
           id="path4198"
           sodipodi:nodetypes="cccccccsssssssccccc"
           inkscape:connector-curvature="0" />
        <path
           style="fill:#000000;fill-opacity:0.39215686;fill-rule:evenodd;stroke:none;filter:url(#filter8978)"
           d="m 377.64442,28.393139 c -5.75709,-10.2065 -12.2047,-19.5185298 -19.11764,-28.99158981 -1.74552,-1.30913999 -1.27939,4.16391001 -3.57143,-0.42016999 -1.20245,-2.40491 -0.97364,0.91711999 -0.21008,1.68066999 3.65583,3.65584001 -2.77607,-4.64433999 -3.57143,-5.04201999 -0.84267,-0.42133 -1.26051,-1.40056 -1.89076,-2.10084 -0.4152,-0.46133 1.28003,4.50937 1.47059,5.46219 0.34113,1.70567999 -2.13136,-2.76161 -3.36135,-3.9916 -2.51064,-2.51065 -3.92736,-4.88144 -1.89075,0.21009 0.95629,2.39073 -3.40227,-3.91725 -5.46219,-5.4621902 -4.6735,-3.50513 -1.66449,1.4867702 0,3.1512602 0.91306,0.91306 -1.60795,-2.02812 -2.52101,-2.9411702 -3.76549,-3.7655 -3.97819,-1.02362 -2.10084,2.7310902 0.24206,0.48411 -2.03694,-1.34731 -4.20168,-3.1512602 -5.17346,-4.31122 -2.26609,-0.64051 -0.21008,2.1008402 1.05038,1.4005 -5.18285,-3.4490802 -7.35294,-3.9916002 -15.01005,-6.49026 -27.32512,4.6353302 -39.07563,12.81513019 9.69962,-12.32385019 23.03055,-19.65309019 38.65546,-19.95799019 34.06135,-0.77903 49.50267,37.28698 54.41176,47.89916 z"
           id="path4200"
           sodipodi:nodetypes="ccssssssssssssscccc"
           inkscape:connector-curvature="0" />
        <path
           style="fill:#ffffff;fill-opacity:0.11764706;fill-rule:evenodd;stroke:none;filter:url(#filter8992)"
           d="M 487.84426,22.20805 C 487.33241,10.926735 474.31447,11.675226 469.12672,3.1934141 c 1.1507,5.6889219 2.37684,8.4264899 2.37684,14.2609769 0.53584,6.245048 8.91756,6.040243 16.3407,4.753659 z"
           id="path4202"
           sodipodi:nodetypes="cccc"
           transform="matrix(1,0,0,1.0752463,-129.31821,26.226049)"
           inkscape:connector-curvature="0" />
      </g>
      <g
         transform="matrix(0.28318084,0,0,0.28300253,83.858795,275.04993)"
         id="g4204">
        <path
           style="fill:#000000;fill-opacity:1;fill-rule:evenodd;stroke:none;filter:url(#filter4576)"
           d="m 347.83036,-96.971912 c 0,0 0.71428,10.71429 -3.21429,16.60715 -3.92857,5.89285 -6.42857,6.42857 -9.10714,8.39285 -2.67857,1.96429 3.21428,2.85715 0.89285,5.89286 -2.32143,3.03572 1.25,2.5 5.89286,2.85714 4.64285,0.35715 -1e-5,1.96429 17.49999,5.00001 17.5,3.03571 27.50001,8.21428 27.50001,8.21428 0,0 12.85714,-0.53571 16.42857,1.07143 2.33156,1.0492 4.82143,-2.32143 0.71428,-6.25 -4.10714,-3.92857 -35.71428,-12.5 -56.60713,-41.78572 z"
           id="path4206"
           sodipodi:nodetypes="cssssscssc"
           inkscape:connector-curvature="0" />
        <path
           style="fill:#9dbfbf;fill-opacity:1;fill-rule:evenodd;stroke:none;filter:url(#filter6212)"
           d="m 390.36966,-159.03186 c 0,0 1.48938,11.33473 -1.79141,14.81884 -3.28078,3.4841 -1.61855,10.22941 -3.85545,11.39078 -2.23689,1.16137 2.68427,1.68926 0.74562,3.4841 -1.93865,1.79485 1.04389,1.47811 4.92118,1.68927 3.87728,0.21116 0,1.16137 14.61439,2.95621 14.61439,1.79484 22.96548,4.85663 22.96548,4.85663 0,0 10.73711,-0.31674 13.71963,0.63347 1.94711,0.62034 4.02641,-1.37252 0.59651,-3.69526 -3.42991,-2.32274 -39.28958,1.1809 -51.91595,-36.13404 z"
           id="path4208"
           sodipodi:nodetypes="cssssscssc"
           transform="matrix(1.0059531,0,0,0.9150594,-44.82946,54.823986)"
           inkscape:connector-curvature="0" />
        <path
           style="fill:#9dbfbf;fill-opacity:1;fill-rule:evenodd;stroke:none;filter:url(#filter6220)"
           d="m 399.46087,-14.436237 c 0,0 1.48938,11.3347373 -1.79141,14.8188413 -3.28078,3.4841064 -1.61855,10.2294147 -3.85545,11.3907827 -2.23689,1.161369 2.68427,1.689264 0.74562,3.484105 -1.93865,1.794842 1.04389,1.478106 4.92118,1.689264 3.87728,0.211158 0,1.161368 14.61439,2.956211 14.61439,1.794841 22.96548,4.85663 22.96548,4.85663 0,0 10.73711,-0.316736 13.71963,0.633474 1.94711,0.620332 4.02641,-1.372526 0.59651,-3.695263 -3.42991,-2.322737 -39.28958,1.180903 -51.91595,-36.134045 z"
           id="path4210"
           sodipodi:nodetypes="cssssscssc"
           transform="matrix(0.4091411,0,0,0.349515,185.47958,-71.585292)"
           inkscape:connector-curvature="0" />
        <path
           style="fill:#9dbfbf;fill-opacity:1;fill-rule:evenodd;stroke:none;filter:url(#filter6180)"
           d="m 430.17857,-9.2857149 c 0.86146,1.3254061 2.58057,1.25 4.46429,1.25 1.07098,0 2.19833,0.1170219 0.53571,-0.7142858 -1.14047,-0.5702365 -1.84085,-0.6217117 -2.67857,-1.2500003 -0.63574,-0.476809 -2.04286,0.4914334 -2.32143,0.7142861 z"
           id="path4212"
           transform="matrix(2.1000466,0,0,2.5377582,-528.77898,-36.036742)"
           inkscape:connector-curvature="0" />
        <path
           style="fill:#9dbfbf;fill-opacity:1;fill-rule:evenodd;stroke:none;filter:url(#filter6722)"
           d="m 430.17857,-9.2857149 c 0.86146,1.3254061 2.58057,1.25 4.46429,1.25 1.07098,0 2.19833,0.1170219 0.53571,-0.7142858 -1.14047,-0.5702365 -1.84085,-0.6217117 -2.67857,-1.2500003 -0.63574,-0.476809 -2.04286,0.4914334 -2.32143,0.7142861 z"
           id="path4214"
           transform="matrix(1.2444548,0,0,1.2066639,-140.4453,-44.848892)"
           inkscape:connector-curvature="0" />
      </g>
      <g
         transform="matrix(0.28318084,0,0,0.28300253,67.837185,288.73183)"
         id="g4216">
        <path
           sodipodi:type="arc"
           style="fill:#e6e6e6;fill-opacity:0.58823529;fill-rule:evenodd;stroke:none;filter:url(#filter4227)"
           id="path4218"
           sodipodi:cx="352.66949"
           sodipodi:cy="-6.9601049"
           sodipodi:rx="5.4295697"
           sodipodi:ry="3.661803"
           d="m 358.09906,-6.9601049 c 0,2.0223579 -2.4309,3.661803 -5.42957,3.661803 -2.99866,0 -5.42957,-1.6394451 -5.42957,-3.661803 0,-2.022358 2.43091,-3.6618031 5.42957,-3.6618031 2.99867,0 5.42957,1.6394451 5.42957,3.6618031 z"
           transform="matrix(1.3801123,0,0,1.3801123,-113.95565,-145.66213)" />
        <path
           sodipodi:type="arc"
           style="fill:#000000;fill-opacity:1;fill-rule:evenodd;stroke:none;filter:url(#filter4231)"
           id="path4220"
           sodipodi:cx="352.66949"
           sodipodi:cy="-6.9601049"
           sodipodi:rx="5.4295697"
           sodipodi:ry="3.661803"
           d="m 358.09906,-6.9601049 c 0,2.0223579 -2.4309,3.661803 -5.42957,3.661803 -2.99866,0 -5.42957,-1.6394451 -5.42957,-3.661803 0,-2.022358 2.43091,-3.6618031 5.42957,-3.6618031 2.99867,0 5.42957,1.6394451 5.42957,3.6618031 z"
           transform="translate(18.918369,-148.55736)" />
        <path
           sodipodi:type="arc"
           style="fill:#ffffff;fill-opacity:1;fill-rule:evenodd;stroke:none;filter:url(#filter4505)"
           id="path4222"
           sodipodi:cx="313.02103"
           sodipodi:cy="4.6566491"
           sodipodi:rx="0.88388348"
           sodipodi:ry="0.88388348"
           d="m 313.90491,4.6566491 c 0,0.4881554 -0.39573,0.8838835 -0.88388,0.8838835 -0.48816,0 -0.88389,-0.3957281 -0.88389,-0.8838835 0,-0.4881554 0.39573,-0.8838835 0.88389,-0.8838835 0.48815,0 0.88388,0.3957281 0.88388,0.8838835 z"
           transform="matrix(1.2464106,0,0,1.2464106,-19.546574,-161.9245)" />
      </g>
      <path
         transform="matrix(0.28318084,0,0,0.28300253,153.26063,218.25214)"
         sodipodi:nodetypes="cssscccsssssssccssc"
         id="path4224"
         d="m 89.527488,133.83672 c 1.41483,0.1605 2.09397,0.0275 2.52101,-1.6807 0.22902,-0.9161 0,-2.2013 0,-3.1512 0,-0.7064 0.731,-1.8822 1.05042,-2.521 0.45443,-0.9089 1.67559,-1.2567 2.521,-1.8908 1.28709,-1.4925 2.87626,-2.7871 3.9916,-4.4118 1.535072,-1.4043 2.142552,-2.7566 2.310932,-4.8319 0,-0.7622 0.27945,-2.3783 0.42016,-2.9412 0.28034,-1.1213 0.63026,-1.8176 0.63026,-3.1512 0,-1.0625 1.44352,-2.1348 1.89075,-2.7311 0.81059,-1.0808 1.21041,-0.8779 2.10084,-0.2101 0.90718,0.6804 -0.24886,-1.5094 -0.63025,-1.8908 -0.8979,-0.8979 -1.57866,-1.0564 -2.10084,-2.1008 -0.78464,-1.5693 -1.89076,-0.7752 -1.89076,0.6303 0,1.0329 -0.21008,2.2488 -0.21008,3.3613 0.53522,7.6573 0.006,15.8049 -8.403362,16.5966 -1.4912,0.7456 -2.47639,2.3173 -3.78151,3.3614 -1.08511,0.8681 -1.26051,2.3233 -1.26051,3.5714 0,1.3233 0.84034,2.4481 0.84034,3.9916 z"
         style="fill:#696647;fill-opacity:1;fill-rule:evenodd;stroke:none;filter:url(#filter9161)"
         inkscape:connector-curvature="0" />
      <path
         transform="matrix(0.28318084,0,0,0.28300253,153.26063,218.25214)"
         sodipodi:nodetypes="cscsssscssssccsscsssscscsssssscsssccscsccsccscscscc"
         id="path4226"
         d="m -192.69397,168.42232 c 0,0 3.8623,-2.0797 6.8334,-2.0797 2.971,0 -4.7537,1.1884 -4.7537,1.1884 0,0 -2.0797,-5.3479 45.4569,-2.9711 47.536498,2.3769 74.870098,12.7755 103.689098,22.2828 28.8191,9.5073 37.7322005,12.7755 42.4859005,11.8842 4.7536,-0.8913 7.1305,-2.3769 7.7247,-5.3479 0.5942,-2.971 21.0942995,-9.2102 21.0942995,-9.2102 0,0 19.90597,16.0436 21.09438,20.7972 1.18842,4.7537 3.86235,23.7683 -3.56524,36.8409 -7.42754,13.0726 -9.80444,13.3697 -15.44934,13.9639 -5.645,0.5942 -26.4422995,-3.8624 -51.6961,0 -25.2538,3.8623 -38.0293,8.61599 -38.0293,8.61599 l -46.050998,0.89131 c 0,0 -70.4136,5.94207 -96.2616,1.48552 -25.848,-4.45656 -38.0293,-5.64497 -38.9206,-7.72472 -0.8913,-2.0797 -2.0797,-1.1884 -2.0797,-1.1884 0,0 -13.3697,-2.0797 -15.4494,-5.645 -2.0798,-3.5652 -3.8624,-17.232 -3.5653,-18.4204 0.2971,-1.1884 2.674,-6.2392 5.0508,-6.2392 2.3768,0 16.3407,-4.4565 20.203,-7.4276 3.8624,-2.971 9.2103,-3.2681 9.2103,-3.2681 0,0 2.6739,-5.3479 9.2102,-8.0218 6.5363,-2.6739 19.3117,-4.1595 19.3117,-4.1595 0,0 2.6739,0 6.2392,-2.0797 3.5652,-2.0797 7.1305,1.4855 13.0725,2.3768 5.9421,0.8914 19.4603,8.1704 31.0474,8.4675 11.587,0.2971 21.2429,1.337 29.5618,-1.0399 8.3189,-2.3768 17.826198,-3.5652 19.608798,-5.6449 1.7827,-2.0798 3.2682,-13.3697 -5.644898,-17.5291 -8.9131,-4.1595 -21.9857,-4.1595 -21.9857,-4.1595 0,0 3.2681,-1.7826 -1.7826,-1.1884 -5.0508,0.5942 -21.9857,8.616 -27.3336,12.1812 -5.3478,3.5653 -1.1884,-5.3478 6.8334,-8.616 8.0218,-3.2681 25.5509,-9.2102 25.5509,-9.2102 l -16.6378,1.7826 c 0,0 -8.0218,-1.4855 -18.7175,2.9711 -10.6957,4.4565 -10.6957,4.7536 -10.6957,4.7536 0,0 0.2971,-0.8913 -1.4855,-1.1884 -1.7827,-0.2971 4.4565,-3.2681 4.4565,-3.2681 l -16.0436,2.0797 c 0,0 22.2828,-8.616 27.9278,-10.1015 5.6449,-1.4855 -13.6668,1.1884 -13.6668,1.1884 l 13.0725,-4.1595 c 0,0 -0.2971,-1.4855 2.9711,-1.7826 3.2681,-0.2971 10.1015,-1.4855 10.1015,-1.4855 0,0 -9.5073,-2.0797 -27.3335,2.0797 -17.8262,4.1595 -27.0365,7.7247 -27.0365,7.7247 0,0 -0.2971,-1.7826 2.9711,-3.5652 3.2681,-1.7826 -3.5653,-2.9711 -3.5653,-2.9711 0,0 6.8334,-2.971 2.9711,-3.8623 z"
         style="fill:#a7aab9;fill-opacity:1;fill-rule:evenodd;stroke:none;filter:url(#filter3965)"
         inkscape:connector-curvature="0" />
      <path
         transform="matrix(0.57135201,0.07135145,-0.10461712,0.30872401,96.258095,136.74982)"
         id="path4228"
         d="m 103.0351,393.14201 -27.036439,6.23918 7.130489,10.39863 41.00031,-11.88415 c 0,0 4.75366,-5.05076 -3.86235,-5.05076 -8.61601,0 -17.52912,0 -17.23201,0.2971 z"
         style="fill:#666666;fill-rule:evenodd;stroke:#000000;stroke-width:1.84892797px;stroke-linecap:butt;stroke-linejoin:miter;stroke-opacity:0.2;filter:url(#filter5362)"
         inkscape:connector-curvature="0" />
      <path
         transform="matrix(0.28318084,0,0,0.28300253,153.26063,218.25214)"
         id="path4230"
         d="m -256.74167,231.75252 c 0,0 2.9411,-4.2017 8.8235,-5.8824 5.8823,-1.6806 18.0672,-9.6638 18.0672,-9.6638 0,0 3.7815,1.6806 5.4622,-0.4202 1.6807,-2.1009 10.084,-9.2437 20.1681,-11.3445 10.084,-2.1009 15.9664,-2.9412 21.4285,-1.6807 5.4622,1.2605 20.5883,11.7647 25.6303,11.7647 5.042,0 14.2857,0.4202 21.8487,3.7815 7.5631,3.3613 18.4874,-1.2605 21.0084,-1.2605 2.521,0 8.8236,2.521 15.126098,-2.521 6.3025,-5.042 15.5462,-6.3025 25.2101,-5.4622 9.6638,0.8403 14.2857,2.521 18.4874,4.2017 4.2016,1.6807 -1.6807,-2.1009 -7.5631,4.6218 -5.8823,6.7227 -0.4201,13.0252 0.4202,16.3866 0.8403,3.3613 -0.8403,3.3613 -0.8403,3.3613 0,0 -13.0252,-17.647 -11.3446,-6.3025 1.6807,11.3445 2.9412,13.8656 -3.7815,5.4622 -6.7227,-8.4034 -6.7227,-13.0252 -6.7227,-7.1429 0,5.8824 2.521,10.9244 -1.6806,10.0841 -4.2017,-0.8404 -5.8824,-2.521 -6.3026,0.4201 -0.4201,2.9412 -2.1008,4.6219 2.1009,4.6219 4.2017,0 5.8823,3.3613 0.8403,2.521 -5.042,-0.8403 -10.083998,0.8403 -14.705898,-6.7227 -4.6218,-7.563 -9.6638,-8.4034 -8.4033,-2.9412 1.2605,5.4622 0.8403,10.0841 3.3613,10.0841 2.521,0 9.2437,4.2016 0.8403,1.6806 -8.4033,-2.521 -12.605,-11.3445 -15.9663,-11.3445 -3.3614,0 -6.3026,1.2605 -8.8236,0 -2.521,-1.2605 4.2017,5.8824 0.4202,11.3445 -3.7815,5.4622 -2.9412,9.2437 -13.0252,9.2437 -10.084,0 -21.8487,-10.084 -24.7899,-12.605 -2.9412,-2.521 -7.9832,-7.9832 -5.042,1.6807 2.9411,9.6638 -1.2606,16.80669 -4.2017,10.084 -2.9412,-6.7227 -8.4034,-21.8487 -7.563,-13.4454 0.8403,8.4034 0.8403,14.7059 -2.5211,14.7059 -3.3613,0 -6.3025,6.30253 -7.563,5.88236 -1.2605,-0.42017 -19.3277,-0.84034 -19.3277,-0.84034 0,0 -28.9916,7.14286 -39.0756,-32.35292 z"
         style="fill:#bbc2dc;fill-opacity:1;fill-rule:evenodd;stroke:none;filter:url(#filter5263)"
         inkscape:connector-curvature="0" />
      <path
         transform="matrix(0.28318084,0,0,0.28300253,153.26063,218.25214)"
         id="path4232"
         d="m -258.00217,234.27352 c 0,0 0.8403,14.7059 6.3025,18.9075 5.4622,4.2017 5.042,10.92442 34.0336,12.18493 28.9916,1.2605 -13.8656,-0.84034 -18.0672,-4.62185 -4.2017,-3.78148 -21.8488,-26.89078 -22.2689,-26.47058 z"
         style="fill:#4b5441;fill-opacity:1;fill-rule:evenodd;stroke:none;filter:url(#filter5251)"
         inkscape:connector-curvature="0" />
      <path
         transform="matrix(0.28318084,0,0,0.28300253,153.26063,218.25214)"
         id="path4234"
         d="m -254.22067,229.23152 c 0,0 -0.4202,6.3025 2.9411,8.8235 3.3614,2.521 7.9832,3.3613 11.7647,3.7815 3.7816,0.4202 -1.2605,2.1009 5.4622,0 6.7227,-2.1008 16.8068,-3.3613 18.4874,-1.2605 1.6807,2.1008 7.9832,11.3445 7.9832,11.3445 0,0 1.6807,2.9412 -3.7815,5.4622 -5.4622,2.521 -7.1428,7.14289 -3.3613,6.30255 3.7815,-0.84033 4.2016,4.20168 9.2437,2.10084 5.042,-2.10084 -28.9916,0.84034 -31.0925,-6.30249 -2.1008,-7.1429 -26.0504,-13.4454 -17.647,-30.2521 z"
         style="fill:#8793a1;fill-opacity:0.58823529;fill-rule:evenodd;stroke:none;filter:url(#filter5320)"
         inkscape:connector-curvature="0" />
      <path
         transform="matrix(0.28318084,0,0,0.28300253,153.26063,218.25214)"
         id="path4236"
         d="m -178.87867,202.58922 c 0,0 -0.4457,1.9312 3.2681,3.1196 3.7138,1.1884 14.7067,-3.8623 16.9349,-7.4276 2.2283,-3.5652 4.0109,-6.5363 9.3588,-9.953 5.3479,-3.4167 14.8552,-8.3189 14.8552,-8.3189 0,0 -11.7356,-1.1884 -44.417,22.5799 z"
         style="fill:#ffffff;fill-opacity:1;fill-rule:evenodd;stroke:none;filter:url(#filter3737)"
         inkscape:connector-curvature="0" />
      <path
         transform="matrix(0.28318084,0,0,0.28300253,153.26063,218.25214)"
         id="path4238"
         d="m -341.84007,191.29932 c 0,0 27.0364,-10.9929 43.6743,-12.1813 16.6378,-1.1884 75.1672,0.8913 75.1672,0.8913 l 32.9785,-7.7247 -18.7175,0 -12.4784,5.0508 -89.4282,-0.8913 c 0,0 -25.848,8.3189 -31.1959,14.8552 z"
         style="fill:#ffffff;fill-rule:evenodd;stroke:none;filter:url(#filter3601)"
         inkscape:connector-curvature="0" />
      <path
         transform="matrix(0.28318084,0,0,0.28300253,153.26063,218.25214)"
         sodipodi:nodetypes="cscssccsc"
         id="path4240"
         d="m -256.29677,228.38652 c 0,0 -4.6219,4.832 -3.9916,9.2437 0.6302,4.4118 2.3109,11.7647 2.3109,11.7647 0,0 -48.7395,-1.8907 -49.5798,-4.6218 -0.8404,-2.7311 1.6806,-6.9328 2.1008,-10.0841 0.5029,-3.7714 1.2605,-8.8235 1.2605,-8.8235 l 4.2017,-8.6134 c 0,0 11.7647,3.3613 17.647,3.1512 5.8824,-0.2101 26.6807,7.7731 26.0505,7.9832 z"
         style="fill:#ffffff;fill-rule:evenodd;stroke:none;filter:url(#filter3505)"
         inkscape:connector-curvature="0" />
      <path
         transform="matrix(0.28318084,0,0,0.28300253,153.26063,218.25214)"
         id="path4242"
         d="m -320.60727,180.07182 10.9244,4.6219 c 0,0 7.1428,-7.5631 46.6386,-6.3026 39.4958,1.2605 44.1177,0.8404 44.1177,0.8404 l -92.437,-5.042 -9.2437,5.8823 z"
         style="fill:#b5bbd1;fill-opacity:1;fill-rule:evenodd;stroke:none;filter:url(#filter5342)"
         inkscape:connector-curvature="0" />
      <path
         transform="matrix(0.28318084,0,0,0.28300253,153.26063,218.25214)"
         sodipodi:nodetypes="cscccccscsccscsccsssccssscscsscsscccc"
         id="path4244"
         d="m -415.54047,197.50422 c 0,0 10.9243,1.2605 21.6386,4.6218 10.7143,3.3614 17.0168,6.5126 17.0168,6.5126 l 0.4202,-3.1512 15.9664,9.0336 0,-3.3614 8.4033,6.5126 c 0,0 20.5698,3.2141 31.5126,0.4202 9.874,-2.521 10.5042,-5.042 10.5042,-5.042 0,0 12.8152,3.3613 26.6807,1.6807 2.9049,-0.3522 4.6219,-1.6807 4.6219,-1.6807 l -4.6219,3.9916 c 0,0 5.6723,2.521 19.1177,-0.2101 13.4453,-2.7311 13.2353,-3.7815 13.2353,-3.7815 0,0 -4.832,3.7815 -6.3026,7.9832 -1.4705,4.2017 -1.2605,5.042 -1.2605,5.042 l 2.1009,1.4706 c 0,0 19.1176,-16.5967 39.2857,-27.7311 20.1681,-11.1345 49.1597,-19.1177 65.9664,-24.7899 15.3593,-5.1838 -22.8992,1.4706 -36.9748,6.9328 -14.021,5.4409 -36.7647,12.3949 -36.7647,12.3949 l 29.4117,-15.3361 c 0,0 3.7816,-2.7311 16.8068,-5.8824 13.0252,-3.1512 -8.1933,-0.8403 -19.7479,4.832 -11.5546,5.6722 -20.5883,7.1428 -26.4706,9.2437 -5.8824,2.1008 -43.6975,15.126 -43.6975,15.126 0,0 -0.4202,-1.8908 8.6135,-6.9328 9.0336,-5.042 9.6638,-5.4622 9.6638,-5.4622 0,0 -34.8739,9.0337 -44.1176,12.1849 -9.2437,3.1513 -28.3614,7.9832 -36.3446,9.874 -7.9832,1.8907 -5.4622,1.4706 -5.4622,1.4706 0,0 -20.5882,-7.353 -36.9747,-10.5042 -16.3866,-3.1513 -17.8572,-4.4118 -19.3278,-5.6723 -1.4706,-1.2605 -29.6218,-7.7731 -29.6218,-7.7731 l -1.8908,1.8907 -4.6218,0.6303 13.2353,5.4622 z"
         style="fill:#ffffff;fill-opacity:1;fill-rule:evenodd;stroke:none;filter:url(#filter3519)"
         inkscape:connector-curvature="0" />
      <path
         transform="matrix(0.28318084,0,0,0.28300253,153.26063,218.25214)"
         sodipodi:nodetypes="cccscsscc"
         id="path4246"
         d="m -351.79307,195.16162 6.3878,0 -0.5942,1.6341 c 0,0 19.6088,1.7826 27.7792,-0.4457 7.7999,-2.1272 9.6558,-4.4565 9.6558,-4.4565 0,0 -4.7536,0 -10.6957,0.1485 -5.9421,0.1486 -10.5472,1.337 -16.9349,0.8913 -6.3877,-0.4456 -8.1704,-0.2971 -8.1704,-0.2971 0,0 -3.2681,1.9312 -7.4276,2.5254 z"
         style="fill:#000000;fill-opacity:1;fill-rule:evenodd;stroke:none;filter:url(#filter3565)"
         inkscape:connector-curvature="0" />
      <path
         transform="matrix(0.28318084,0,0,0.28300253,153.26063,218.25214)"
         sodipodi:nodetypes="ccccscscssccccccsc"
         id="path4248"
         d="m -379.57227,194.86452 13.6668,4.7537 17.8262,0.2971 -1.7826,2.6739 c 0,0 4.7537,0.8913 12.4784,0.8913 7.7247,0 6.2391,0.5942 6.2391,0.5942 0,0 -4.4565,5.3479 -5.942,6.5363 -1.4855,1.1884 1.4855,1.7826 1.4855,1.7826 0,0 5.3479,-6.2391 11.587,-7.4276 6.2392,-1.1884 4.4566,-1.7826 25.8481,-7.1304 21.3914,-5.3479 22.2827,-7.1305 22.2827,-7.1305 l -31.7901,0.2971 -10.1015,5.6449 -28.5219,0 1.4855,-1.4855 -6.5363,0 c 0,0 -7.7247,3.8624 -15.4494,1.7826 -7.7247,-2.0797 -13.0726,-2.3768 -12.7755,-2.0797 z"
         style="fill:#ffffff;fill-rule:evenodd;stroke:none;filter:url(#filter4109)"
         inkscape:connector-curvature="0" />
      <path
         transform="matrix(0.28318084,0,0,0.28300253,153.26063,218.25214)"
         sodipodi:nodetypes="cccc"
         id="path4250"
         d="m -229.08917,171.69042 35.3553,0 5.1993,-2.5253 c 0,0 -9.3587,-2.8225 -40.5546,2.5253 z"
         style="fill:#ffffff;fill-opacity:1;fill-rule:evenodd;stroke:none;filter:url(#filter4057)"
         inkscape:connector-curvature="0" />
      <path
         transform="matrix(0.28318084,0,0,0.28300253,153.26063,218.25214)"
         sodipodi:nodetypes="cscsc"
         id="path4252"
         d="m -212.30287,207.64002 c 0,0 5.3479,-4.1595 8.9131,-4.1595 7.8957,0 8.0218,0.7428 8.0218,0.7428 0,0 -8.0218,1.4855 -10.3986,1.4855 -2.3768,0 -6.3877,1.9312 -6.5363,1.9312 z"
         style="fill:#ffffff;fill-rule:evenodd;stroke:none;filter:url(#filter3643)"
         inkscape:connector-curvature="0" />
      <path
         transform="matrix(0.28318084,0,0,0.28300253,153.26063,218.25214)"
         id="path4254"
         d="m -252.41187,226.50612 c 0,0 13.8153,-3.7138 17.5291,-6.6849 3.7138,-2.971 8.7646,-3.1196 8.7646,-3.1196 0,0 5.7935,-9.6558 18.2719,-13.3696 12.4783,-3.7138 18.1233,-6.2392 21.8371,-8.616 3.7138,-2.3769 3.7138,-2.3769 3.7138,-2.3769 0,0 -5.3479,3.7138 -8.1704,6.6849 -2.8224,2.971 -3.1195,4.308 -3.1195,4.308 0,0 -1.0399,1.4855 5.6449,-2.674 6.6849,-4.1594 9.0617,-7.8732 19.1632,-12.924 10.1015,-5.0507 -17.5291,1.0399 -36.5437,10.9929 -19.0147,9.9529 -43.2286,24.9567 -47.091,27.7792 z"
         style="fill:#ffffff;fill-opacity:1;fill-rule:evenodd;stroke:none;filter:url(#filter4097)"
         inkscape:connector-curvature="0" />
      <path
         transform="matrix(0.28318084,0,0,0.28300253,153.26063,218.25214)"
         id="path4256"
         d="m -157.93287,198.72692 c 0,0 25.5509,-12.1813 29.4133,-12.924 3.8623,-0.7428 5.1993,-1.4856 4.308,-2.3769 -0.8913,-0.8913 -2.9711,-0.7427 -8.616,1.4855 -5.645,2.2283 -12.3298,4.1595 -25.1053,13.8154 z"
         style="fill:#ffffff;fill-opacity:1;fill-rule:evenodd;stroke:none;filter:url(#filter3773)"
         inkscape:connector-curvature="0" />
      <path
         transform="matrix(0.28318084,0,0,0.28300253,153.26063,218.25214)"
         id="path4258"
         d="m -416.59087,197.08402 c 0,0 35.5041,15.5462 44.9579,22.0588 9.4538,6.5126 15.3362,11.3446 13.8656,15.7563 -1.4706,4.4118 -3.3614,7.9832 -3.3614,7.9832 l 1.8908,0.6303 c 0,0 14.2857,-2.7311 30.042,-0.6303 15.7563,2.1009 18.9076,3.1513 18.9076,3.1513 0,0 1.8907,0.2101 1.8907,-2.1009 0,-2.3109 3.1513,-6.9327 2.9412,-10.9243 -0.2101,-3.9916 3.1513,-10.0841 3.7815,-12.395 0.6303,-2.3109 1.4706,-5.042 1.4706,-5.042 l -9.2437,-1.8908 c 0,0 -9.6639,6.7227 -22.479,5.8824 -12.8151,-0.8403 -19.5378,-1.4706 -19.5378,-1.4706 l -8.8235,-6.5126 0,3.1513 -16.1765,-8.4034 -0.2101,2.521 c 0,0 -13.8655,-6.9328 -39.9159,-11.7647 z"
         style="fill:#000000;fill-opacity:1;fill-rule:evenodd;stroke:none;filter:url(#filter3499)"
         inkscape:connector-curvature="0" />
      <path
         transform="matrix(0.28318084,0,0,0.28300253,153.26063,218.25214)"
         id="path4260"
         d="m -520.58257,143.09242 19.3278,13.0252 c 0,0 18.4874,8.4034 33.6134,16.3866 15.1261,7.9832 21.8488,7.9832 21.4286,7.9832 -0.4202,0 14.7059,10.084 14.7059,10.084 l 4.2017,0.8403 5.8823,-2.1008 30.6723,7.9832 5.042,2.521 c 0,0 27.7311,5.042 32.3529,7.1428 4.6219,2.1009 14.7059,5.0421 14.7059,5.0421 l 9.2437,-8.8236 -21.8487,-0.8403 3.3613,-2.1008 c 0,0 -17.647,0.8403 -19.3277,-0.4202 -1.6807,-1.2605 -12.1849,-3.7815 -12.1849,-3.7815 l -5.042,-2.521 c 0,0 -28.1513,-6.7227 -34.0336,-10.0841 -5.8824,-3.3613 -66.8067,-24.3697 -66.8067,-24.3697 0,0 -33.1933,-13.8656 -35.2942,-15.9664 z"
         style="fill:#000000;fill-opacity:1;fill-rule:evenodd;stroke:none;filter:url(#filter3511)"
         inkscape:connector-curvature="0" />
      <path
         transform="matrix(0.35376959,0,0,0.37246218,77.532445,117.3601)"
         id="path4262"
         d="m -29.043593,432.97321 c 0,0 12.394958,3.36134 17.226891,3.78151 4.8319328,0.42017 24.579832,6.93277 24.579832,6.93277 0,0 -2.521008,-4.62185 1.470588,-9.03361 3.991597,-4.41177 2.941177,-4.41177 2.941177,-4.41177 0,0 -17.01680722,5.04202 -23.7394961,4.20168 -6.7226889,-0.84033 -6.9327729,-0.84033 -6.9327729,-0.84033 0,0 0,-0.84034 1.470588,-1.89076 1.470588,-1.05042 1.470588,-1.05042 1.470588,-1.05042 0,0 -8.823529,1.05042 -14.495798,0.84034 -5.672269,-0.21009 -3.781513,1.68067 -3.991597,1.47059 z"
         style="fill:#b3b3b3;fill-opacity:1;fill-rule:evenodd;stroke:none;filter:url(#filter5368)"
         inkscape:connector-curvature="0" />
      <path
         transform="matrix(0.28318084,0,0,0.28300253,153.26063,218.25214)"
         id="path4264"
         d="m -299.36407,216.83192 c 0,0 12.395,3.3613 17.2269,3.7815 4.832,0.4202 24.5799,6.9328 24.5799,6.9328 0,0 -2.521,-4.6219 1.4705,-9.0336 3.9916,-4.4118 2.9412,-4.4118 2.9412,-4.4118 0,0 -17.0168,5.042 -23.7395,4.2017 -6.7227,-0.8403 -6.9327,-0.8403 -6.9327,-0.8403 0,0 0,-0.8404 1.4705,-1.8908 1.4706,-1.0504 1.4706,-1.0504 1.4706,-1.0504 0,0 -8.8235,1.0504 -14.4958,0.8403 -5.6722,-0.2101 -3.7815,1.6807 -3.9916,1.4706 z"
         style="fill:#000000;fill-opacity:1;fill-rule:evenodd;stroke:none;filter:url(#filter4101)"
         inkscape:connector-curvature="0" />
      <path
         transform="matrix(0.28318084,0,0,0.28300253,153.26063,218.25214)"
         sodipodi:nodetypes="cscscc"
         id="path4266"
         d="m -340.05747,188.03112 c -8.9131,-2.6739 -4.4565,-3.2681 -21.0943,-3.8623 -14.8721,-0.5408 -19.906,-1.1884 -19.906,-1.1884 0,0 19.012,-2.9711 27.3336,-2.9711 8.616,0 25.5509,2.9711 25.5509,2.9711 0,0 -10.3986,3.8623 -11.8842,5.0507 z"
         style="fill:#000000;fill-opacity:1;fill-rule:evenodd;stroke:none;filter:url(#filter4105)"
         inkscape:connector-curvature="0" />
      <path
         transform="matrix(0.28318084,0,0,0.28300253,153.26063,218.25214)"
         sodipodi:nodetypes="cssccscc"
         id="path4268"
         d="m -335.00667,211.79942 c 0,0 5.645,-5.942 11.587,-7.1305 5.9421,-1.1884 32.9786,-8.3189 40.109,-11.2899 7.1305,-2.971 7.4276,-3.2681 7.4276,-3.2681 l 23.1741,-0.2971 c 0,0 -37.435,8.616 -45.4568,12.7754 -8.0909,4.1953 -23.1741,6.2392 -23.1741,6.2392 l -13.6668,2.971 z"
         style="fill:#000000;fill-opacity:1;fill-rule:evenodd;stroke:none;filter:url(#filter3555)"
         inkscape:connector-curvature="0" />
      <path
         transform="matrix(0.28318084,0,0,0.28300253,153.26063,218.25214)"
         sodipodi:nodetypes="cscscscsc"
         id="path4270"
         d="m -343.32557,192.19062 c 0,0 55.4098,-10.5472 74.8701,-11.2899 19.4603,-0.7428 19.6089,-0.7428 19.6089,-0.7428 0,0 17.232,0.1485 18.8661,0.2971 1.634,0.1485 6.6848,0.4456 6.6848,0.4456 0,0 -13.3697,2.8225 -18.569,5.1994 -5.1993,2.3768 -8.0218,4.0109 -8.0218,4.0109 0,0 -58.9751,1.0398 -68.1853,2.0797 -9.2102,1.0399 -13.5182,1.6341 -25.2538,0 z"
         style="fill:#ffffff;fill-opacity:1;fill-rule:evenodd;stroke:none;filter:url(#filter3571)"
         inkscape:connector-curvature="0" />
      <path
         transform="matrix(0.28318084,0,0,0.28300253,153.26063,218.25214)"
         id="path4272"
         d="m -217.94777,170.79912 -27.0365,6.2392 7.1305,10.3986 41.0003,-11.8841 c 0,0 4.7537,-5.0508 -3.8623,-5.0508 -8.616,0 -17.5291,0 -17.232,0.2971 z"
         style="fill:#666666;fill-rule:evenodd;stroke:#000000;stroke-width:1.84892797px;stroke-linecap:butt;stroke-linejoin:miter;stroke-opacity:0.2;filter:url(#filter5356)"
         inkscape:connector-curvature="0" />
      <path
         transform="matrix(0.28318084,0,0,0.28300253,153.26063,218.25214)"
         sodipodi:nodetypes="cssccc"
         id="path4274"
         d="m -267.26707,201.40082 c 0,0 21.243,-14.4095 36.3952,-18.4204 15.1523,-4.0109 23.1741,-5.4964 29.1162,-7.2791 5.9421,-1.7826 11.587,-1.3369 11.587,-1.3369 0,0 -25.5509,10.3986 -33.7212,11.4385 -20.6016,8.6387 -42.2941,15.1083 -43.3772,15.5979 z"
         style="fill:#000000;fill-opacity:1;fill-rule:evenodd;stroke:none;filter:url(#filter3577)"
         inkscape:connector-curvature="0" />
      <path
         transform="matrix(0.28318084,0,0,0.28300253,153.26063,218.25214)"
         id="path4276"
         d="m -222.55297,193.52762 c 0,0 19.906,-13.0726 38.3264,-18.1234 18.4204,-5.0507 17.3806,-6.2391 31.0474,-6.8334 13.6667,-0.5942 13.5182,0 13.5182,0 0,0 -11.5871,0.8914 -13.9639,2.0798 -2.3768,1.1884 1.9312,1.7826 1.9312,1.7826 0,0 -6.8334,-0.1486 -21.9857,4.7537 -15.1523,4.9022 -49.1707,16.7863 -48.8736,16.3407 z"
         style="fill:#000000;fill-opacity:1;fill-rule:evenodd;stroke:none;filter:url(#filter3587)"
         inkscape:connector-curvature="0" />
      <path
         transform="matrix(0.28318084,0,0,0.28300253,153.26063,218.25214)"
         sodipodi:nodetypes="csscsc"
         id="path4278"
         d="m -255.08577,227.10032 c 0,0 19.1632,-19.3118 42.3373,-30.0075 23.1741,-10.6957 34.7611,-12.6269 41.743,-13.3697 6.982,-0.7427 8.1704,0 8.1704,0 0,0 -28.6705,6.3878 -48.725,18.2719 -20.0545,11.8842 -43.6743,25.5509 -43.5257,25.1053 z"
         style="fill:#000000;fill-opacity:1;fill-rule:evenodd;stroke:none;filter:url(#filter3593)"
         inkscape:connector-curvature="0" />
      <path
         transform="matrix(0.28318084,0,0,0.28300253,153.26063,218.25214)"
         id="path4280"
         d="m -228.49497,171.24482 c 0,0 14.5581,-3.4167 27.185,-4.0109 12.6269,-0.5942 17.0834,-0.4457 17.0834,-0.4457 l -5.3478,0.5942 -3.2682,1.4856 c 0,0 -6.3877,-0.5943 -15.895,0 -9.5073,0.5942 -20.0545,2.5253 -19.7574,2.3768 z"
         style="fill:#000000;fill-opacity:1;fill-rule:evenodd;stroke:none;filter:url(#filter3627)"
         inkscape:connector-curvature="0" />
      <path
         transform="matrix(0.28318084,0,0,0.17513909,449.05757,457.53135)"
         sodipodi:nodetypes="cscscscscc"
         id="path4282"
         d="m -1425.0361,-1085.4129 c 0,0 14.261,-1.1885 34.0184,2.8224 19.7574,4.0109 19.9059,4.1595 19.9059,4.1595 0,0 3.8624,-4.4566 11.7356,-5.0508 7.8733,-0.5942 71.4535,-0.1485 71.4535,-0.1485 0,0 17.0834,0.8913 23.0255,-1.1884 5.9421,-2.0798 11.8842,-3.7138 11.8842,-3.7138 0,0 -25.9966,-0.1486 -36.8409,0.2971 -10.8443,0.4456 -79.0296,-0.2971 -92.1021,-1.0399 -4.2593,0.5293 -36.3569,-1.8874 -43.0801,3.8624 z"
         style="fill:#000000;fill-opacity:1;fill-rule:evenodd;stroke:none;filter:url(#filter3611)"
         inkscape:connector-curvature="0" />
      <path
         transform="matrix(0.28318084,0,0,0.28300253,153.26063,218.25214)"
         id="path4284"
         d="m -221.81017,212.09652 c 0,0 8.7646,-7.5761 17.5291,-9.8044 8.7646,-2.2283 13.9639,-5.1993 18.1233,-7.5761 4.1595,-2.3769 4.4566,-1.9312 4.4566,-1.9312 0,0 -8.3189,4.6051 -10.3986,7.7247 -2.0797,3.1196 -3.4167,3.5652 -3.4167,3.5652 0,0 -6.6848,-2.2282 -14.261,1.7827 -7.5761,4.0109 -12.1812,6.5362 -12.0327,6.2391 z"
         style="fill:#000000;fill-opacity:1;fill-rule:evenodd;stroke:none;filter:url(#filter4025)"
         inkscape:connector-curvature="0" />
      <path
         transform="matrix(0.28318084,0,0,0.28300253,153.26063,218.25214)"
         id="path4286"
         d="m -340.65167,191.29932 c 0,0 26.7394,-4.4566 44.2685,-7.1305 17.5291,-2.6739 24.3625,-3.8624 46.9424,-3.8624 22.5798,0 -46.6453,-1.1884 -49.6164,-0.8913 -2.971,0.2971 -38.0292,8.3189 -41.5945,11.8842 z"
         style="fill:#000000;fill-rule:evenodd;stroke:none;filter:url(#filter3705)"
         inkscape:connector-curvature="0" />
      <path
         transform="matrix(0.28318084,0,0,0.28300253,153.26063,218.25214)"
         id="path4288"
         d="m -186.00917,200.06382 c 0,0 6.3877,-7.5761 21.3915,-13.9638 15.0037,-6.3878 22.2827,-6.2392 24.511,-6.0907 2.2283,0.1486 -1.1884,-0.8913 -17.9748,8.616 -16.7863,9.5074 -22.4313,14.8552 -22.4313,14.8552 l -5.4964,-3.4167 z"
         style="fill:#000000;fill-opacity:1;fill-rule:evenodd;stroke:none;filter:url(#filter3711)"
         inkscape:connector-curvature="0" />
      <path
         transform="matrix(0.28318084,0,0,0.28300253,153.26063,218.25214)"
         id="path4290"
         d="m -177.09607,204.52042 c 0,0 4.308,-4.9022 8.0218,-7.4276 3.7138,-2.5254 10.2501,-5.645 10.2501,-5.645 0,0 -4.9022,4.7537 -9.0617,7.7247 -4.1594,2.9711 -9.3588,5.4964 -9.2102,5.3479 z"
         style="fill:#000000;fill-opacity:1;fill-rule:evenodd;stroke:none;filter:url(#filter4093)"
         inkscape:connector-curvature="0" />
      <path
         transform="matrix(0.28318084,0,0,0.28300253,153.26063,218.25214)"
         id="path4292"
         d="m -174.27357,205.11462 c 0,0 8.1703,-5.1993 12.924,-8.7646 4.7537,-3.5652 25.1053,-15.4493 32.5329,-16.9349 7.4275,-1.4855 8.616,-1.3369 8.616,-1.3369 0,0 -30.3046,10.1015 -33.8699,13.8153 -3.5652,3.7138 -4.0109,5.9421 -20.203,13.2211 z"
         style="fill:#000000;fill-opacity:1;fill-rule:evenodd;stroke:none;filter:url(#filter4081)"
         inkscape:connector-curvature="0" />
      <path
         transform="matrix(0.28318084,0,0,0.28300253,153.26063,218.25214)"
         id="path4294"
         d="m -192.54547,170.50202 c 18.4204,-0.8913 21.8371,-1.7826 26.1451,-2.5254 4.308,-0.7427 5.7936,-1.0398 5.7936,-1.0398 0,0 -10.9929,-0.1486 -20.6487,1.1884 -9.6559,1.337 -11.29,2.3768 -11.29,2.3768 z"
         style="fill:#000000;fill-opacity:1;fill-rule:evenodd;stroke:none;filter:url(#filter4069)"
         inkscape:connector-curvature="0" />
      <path
         transform="matrix(0.28318084,0,0,0.28300253,153.26063,218.25214)"
         id="path4296"
         d="m -163.13217,179.41512 c 0,0 13.9639,-4.4565 23.9168,-6.5362 9.953,-2.0798 10.6958,-3.7138 10.6958,-3.7138 l 13.9638,-0.1486 c 0,0 -9.5073,0.1486 -13.0725,2.2283 -3.5653,2.0797 3.4167,2.3768 -35.5039,8.1703 z"
         style="fill:#000000;fill-opacity:1;fill-rule:evenodd;stroke:none;filter:url(#filter4073)"
         inkscape:connector-curvature="0" />
      <path
         transform="matrix(0.28318084,0,0,0.28300253,153.26063,218.25214)"
         id="path4298"
         d="m -136.98707,178.07822 c 0,0 12.7755,-3.4167 22.2828,-3.8624 9.5073,-0.4456 9.3587,-0.5942 7.8732,-1.4855 -1.4855,-0.8913 -2.971,-2.3768 -30.156,5.3479 z"
         style="fill:#000000;fill-opacity:1;fill-rule:evenodd;stroke:none;filter:url(#filter4077)"
         inkscape:connector-curvature="0" />
      <path
         transform="matrix(0.31536049,0,0,0.31516192,72.707445,139.01608)"
         id="path4300"
         d="m 96.0084,459.45378 c 0,0 6.51261,1.47059 8.40336,4.41177 1.89076,2.94117 2.10085,3.15126 2.10085,3.15126 0,0 5.67226,-2.52101 8.61344,-1.89076 2.94118,0.63025 2.94118,3.36134 2.94118,3.36134 l 14.91596,0.84034 -1.68067,-3.36134 c 0,0 -14.28571,2.10084 -16.59664,-0.84034 -2.31092,-2.94118 -0.84033,-6.72269 -18.69748,-5.67227 z"
         style="fill:#ffffff;fill-opacity:1;fill-rule:evenodd;stroke:none;filter:url(#filter5267)"
         inkscape:connector-curvature="0" />
      <path
         transform="matrix(0.28318084,0,0,0.28300253,153.26063,218.25214)"
         id="path4302"
         d="m -277.03237,209.43212 c 0,0 -1.8908,-2.7311 2.521,-3.3613 4.4118,-0.6303 8.6134,0 11.1345,-3.1513 2.521,-3.1513 4.4117,-3.9916 10.2941,-4.8319 5.8823,-0.8404 15.5462,-3.3614 18.9075,-5.042 3.3614,-1.6807 9.6639,-2.311 9.0336,-0.4202 -0.6302,1.8907 2.311,1.4706 3.9916,1.0504 1.6807,-0.4202 11.9748,-2.9412 5.8824,0.6303 -6.0924,3.5714 -10.5042,8.4033 -27.521,11.1344 -17.0168,2.7311 -27.1009,2.7311 -29.8319,4.4118 -2.7311,1.6807 -2.7311,1.6807 -2.7311,1.6807 l -1.6807,-2.1009 z"
         style="fill:#b3b3b3;fill-rule:evenodd;stroke:none;filter:url(#filter5001)"
         inkscape:connector-curvature="0" />
      <path
         transform="matrix(0.28318084,0,0,0.28300253,153.26063,218.25214)"
         id="path4304"
         d="m -307.26697,190.78612 c 1.4706,0 30.2521,0 30.2521,0 l -36.3445,10.9244 0.4202,-6.0925 5.6722,-4.8319 z"
         style="fill:#b3b3b3;fill-opacity:1;fill-rule:evenodd;stroke:none;filter:url(#filter4997)"
         inkscape:connector-curvature="0" />
      <path
         transform="matrix(0.28318084,0,0,0.28300253,153.26063,218.25214)"
         id="path4306"
         d="m -408.00217,199.81972 -23.9496,-9.4538"
         style="fill:none;stroke:#000000;stroke-width:1.84892797px;stroke-linecap:butt;stroke-linejoin:miter;stroke-opacity:1;filter:url(#filter4967)"
         inkscape:connector-curvature="0" />
      <path
         transform="matrix(0.28295427,-0.01131872,0.01132586,0.2827761,72.421545,152.63775)"
         id="path4308"
         d="m -115.7563,427.31092 -45.37815,-11.97479"
         style="fill:none;stroke:#000000;stroke-width:1.84892797px;stroke-linecap:butt;stroke-linejoin:miter;stroke-opacity:1;filter:url(#filter4971)"
         inkscape:connector-curvature="0" />
      <rect
         transform="matrix(0.28318084,0,0,0.28300253,153.26063,218.25214)"
         y="204.3719"
         x="-338.27478"
         height="7.7246962"
         width="8.6160069"
         id="rect4310"
         style="fill:#4d4d4d;fill-opacity:0.54166667;fill-rule:evenodd;stroke:none;filter:url(#filter4993)" />
      <path
         transform="matrix(0.28318084,0,0,0.28300253,153.26063,218.25214)"
         id="path4312"
         d="m -204.59487,264.98017 c 0,0 15.9664,1.2605 17.0168,2.31092 1.0504,1.05042 30.2521,1.05042 30.2521,0 0,-1.05042 12.1848,0.42017 12.8151,-0.42017 0.6303,-0.84033 0.4202,-3.36134 -0.8403,-4.62184 -1.2605,-1.26051 -0.2101,-3.78156 1.2605,-3.99156 1.4706,-0.2101 -5.6723,-0.4202 -5.6723,-0.4202 0,0 1.0504,4.20167 0.2101,4.41176 -0.8404,0.21008 -9.6639,1.68067 -8.6135,-0.42017 1.0505,-2.10089 3.1513,-5.25209 3.1513,-5.25209 l -9.2437,0 c 0,0 1.8908,2.521 1.0504,4.41175 -0.8403,1.89076 -2.521,3.78151 -3.9916,3.15126 -1.4706,-0.63025 -2.1008,-4.83191 -1.0504,-5.67231 1.0504,-0.8403 2.7311,-2.3109 0.8404,-3.5714 -1.8908,-1.2605 0.4201,-3.7815 -2.7311,-4.2017 -3.1513,-0.4201 -4.4118,-3.9916 -4.6219,-5.042 -0.2101,-1.0504 1.2605,-4.4118 -1.8907,-4.4118 -3.1513,0 -9.4538,-1.6806 -8.4034,1.8908 1.0504,3.5714 2.1008,7.3529 0.6302,7.1429 -1.4705,-0.2101 -3.9915,-0.8404 -7.7731,-5.0421 -3.7815,-4.2016 -4.2017,-5.4621 -4.4117,-3.5714 -0.2101,1.8908 -7.1429,1.4706 -4.6219,2.9412 2.521,1.4706 2.3109,4.6218 4.8319,3.9916 2.5211,-0.6303 0.4202,2.1008 0.4202,2.1008 0,0 0.2101,1.0504 1.4706,1.4706 1.2605,0.4202 0.6303,1.6807 -1.4706,3.1513 -2.1008,1.4706 -5.2521,1.0504 -5.2521,-0.4202 0,-1.4706 -1.2605,-3.5714 -2.9412,-2.1008 -1.6806,1.4706 1.0505,3.5714 0.8404,3.9916 -0.2101,0.4201 -0.8404,2.1008 -1.2605,8.19325 z"
         style="fill:#ffffff;fill-opacity:0.78431373;fill-rule:evenodd;stroke:none;filter:url(#filter5275)"
         inkscape:connector-curvature="0" />
      <path
         transform="matrix(0.28318084,0,0,0.28300253,153.26063,218.25214)"
         id="path4314"
         d="m -223.79387,259.60402 c 0,0 2.9412,-2.7311 6.7227,-3.3613 3.7815,-0.6303 5.042,1.0504 6.9327,1.8907 1.8908,0.8404 3.1513,1.2605 2.9412,2.10086 -0.2101,0.84034 -1.8907,3.15126 -7.1428,2.52101 -5.2521,-0.63025 -7.1429,-2.73107 -9.4538,-3.15127 z"
         style="fill:#ffffff;fill-opacity:0.78431373;fill-rule:evenodd;stroke:none;filter:url(#filter5287)"
         inkscape:connector-curvature="0" />
      <path
         transform="matrix(0.28318084,0,0,0.28300253,153.26063,218.25214)"
         id="path4316"
         d="m -255.48117,229.65162 c 0,0 1.2605,11.7647 5.4621,11.7647 4.2017,0 5.0421,-2.1008 8.4034,-0.4201 3.3614,1.6806 2.9412,2.521 8.8235,0.8403 5.8824,-1.6807 13.4454,-3.7815 19.7479,3.7815 6.3026,7.563 8.4034,8.8236 2.9412,11.7647 -5.4622,2.94121 -6.3025,3.78155 -2.521,5.46222 3.7815,1.68067 12.1849,1.2605 12.1849,1.2605 0,0 -15.1261,3.36135 -21.4286,-0.42017 -6.3025,-3.78155 -9.2437,-7.56305 -12.605,-7.98315 -3.3614,-0.4202 -0.4202,-3.7816 -4.6219,-6.7227 -4.2017,-2.9412 -14.7059,-1.6807 -16.3865,-19.3278 z"
         style="fill:#838d9c;fill-opacity:0;fill-rule:evenodd;stroke:none;filter:url(#filter5019)"
         inkscape:connector-curvature="0" />
      <path
         transform="matrix(0.28318084,0,0,0.28300253,153.26063,218.25214)"
         id="path4318"
         d="m -239.51487,246.87852 c 3.3614,3.7815 2.9412,0.8404 3.3614,3.7815 0.4202,2.9412 -2.9412,3.3614 7.9832,6.3026 10.9244,2.9411 14.7059,2.521 13.4454,-0.4202 -1.2605,-2.9412 -7.5631,-3.3613 -8.8236,-7.1429 -1.2605,-3.7815 -1.2605,-5.042 -7.9832,-3.7815 -6.7226,1.2605 -7.563,1.2605 -7.9832,1.2605 z"
         style="fill:#e6e6e6;fill-opacity:0.78431373;fill-rule:evenodd;stroke:none;filter:url(#filter5283)"
         inkscape:connector-curvature="0" />
      <path
         transform="matrix(0.4097775,0,0,0.34443601,51.315395,126.68645)"
         id="path4320"
         d="m 223.39063,437.11213 c 0,0 -8.82352,-2.10084 -12.60504,2.52101 -3.78151,4.62185 2.52101,17.22689 2.52101,17.22689 0,0 7.14286,8.40336 -4.62185,0 -11.7647,-8.40336 -7.98319,-13.44538 -7.98319,-13.44538 0,0 0,8.40336 2.10084,12.60505 2.10084,4.20168 -6.30252,-7.56303 -5.88235,-10.08404 0.42016,-2.52101 -9.66387,1.26051 -5.88236,10.5042 3.78152,9.2437 -2.10084,2.94118 -10.08403,-4.20168 -7.98319,-7.14285 -2.52101,5.88236 2.94118,10.08404 5.46218,4.20168 5.88235,12.60504 -10.50421,2.52101 -16.38655,-10.08404 -17.22689,-12.18488 -15.12605,-4.20169 2.10084,7.9832 -4.62184,1.26051 -8.82353,-3.78151 -4.20168,-5.04202 -7.56302,-12.18487 3.36135,-14.70588 10.92437,-2.52101 18.90756,-4.62185 25.21008,-7.98319 6.30252,-3.36135 11.76471,-7.14286 11.76471,-7.14286 l 1.2605,4.62185 3.36135,-2.94118 4.20168,2.94118 0.84033,-4.20168 4.62185,3.36134 0.84034,-3.36134 4.62185,4.20168 c 0,0 -7.56303,-5.88236 0,-2.94118 7.56302,2.94118 14.70588,7.98319 13.86554,8.40336 z"
         style="fill:#cccccc;fill-opacity:1;fill-rule:evenodd;stroke:none;filter:url(#filter5306)"
         inkscape:connector-curvature="0" />
      <path
         transform="matrix(0.28318084,0,0,0.28300253,153.26063,218.25214)"
         sodipodi:nodetypes="cccccc"
         id="path4322"
         d="m -172.05307,206.53782 c 17.4105,-9.0414 61.6393,-37.6446 76.050398,-8.4034 0.6472,7.2717 -1.3084,11.311 -9.243698,11.7647 -4.7658,-1.1019 -8.9737,1.1824 -13.4454,1.6807 -10.6107,2.9375 -21.7796,1.426 -32.7731,0.8403 -8.6077,-1.4988 -13.7056,-2.9513 -20.5882,-5.8823 z"
         style="fill:#000000;fill-rule:evenodd;stroke:none;filter:url(#filter3485)"
         inkscape:connector-curvature="0" />
      <path
         transform="matrix(0.41107325,0,0,0.31789643,54.652235,138.88383)"
         id="path4324"
         d="m 128.15126,442.85714 c 0,0 6.30252,5.04202 16.38656,3.36135 10.08403,-1.68068 17.64705,0.42017 22.68907,-2.52101 5.04202,-2.94118 8.40336,-4.20168 7.14286,-6.30252 -1.26051,-2.10084 -18.4874,-0.42017 -18.4874,-0.42017 0,0 2.10084,-0.84034 -5.46218,2.10084 -7.56303,2.94118 -23.10925,3.36134 -22.26891,3.78151 z"
         style="fill:#808ba8;fill-opacity:1;fill-rule:evenodd;stroke:none;filter:url(#filter5291)"
         inkscape:connector-curvature="0" />
      <path
         transform="matrix(0.28318084,0,0,0.28300253,153.26063,218.25214)"
         id="path4326"
         d="m -136.15347,253.18102 c 0,0 79.411798,-7.563 84.033598,-3.3613 4.6219,4.2017 9.2437,-3.3613 14.7059,0.8403 5.4622,4.2017 -0.4202,5.8824 -5.042,4.2017 -4.6219,-1.6807 -9.6639,0.8403 -7.9832,2.1009 1.6806,1.2605 7.1428,-1.6807 -7.563,2.1008 -14.7059,3.78151 -31.5127,5.88235 -31.5127,5.88235 l 34.874,-9.66385 -9.2437,-2.521 -4.2017,3.3613 -6.7227,-2.521 -3.3613,3.7815 -5.8824,-3.7815 -4.2016,6.3025 -7.1429,-3.3613 -5.462198,3.7815 -5.8823,-4.2017 -9.6639,6.30254 c 0,0 -1.6807,-7.14284 -2.521,-5.04204 -0.8404,2.1009 -3.7815,6.30255 -3.7815,6.30255 l -4.6219,-5.88235 -5.8823,5.88235 -0.8404,-7.14285 -4.6218,5.46218 2.521,-8.82358 z"
         style="fill:#bec2db;fill-opacity:1;fill-rule:evenodd;stroke:none;filter:url(#filter5211)"
         inkscape:connector-curvature="0" />
      <path
         transform="matrix(0.28318084,0,0,0.28300253,153.26063,218.25214)"
         id="path4328"
         d="m -134.47277,265.78611 c 8.8235,-5.04201 4.6218,-9.24369 8.8235,-5.04201 4.2017,4.20168 7.563,4.62185 9.6639,-1.68068 2.1008,-6.3025 3.7815,-4.2017 4.2016,0.8403 0.4202,5.04206 6.3026,-0.8403 6.3026,-0.8403 l 3.3613,3.78152 6.302498,-3.78152 2.1009,4.62185 c 0,0 6.7227,2.10084 -40.756298,2.10084 z"
         style="fill:#ffffff;fill-opacity:1;fill-rule:evenodd;stroke:none;filter:url(#filter5279)"
         inkscape:connector-curvature="0" />
      <path
         transform="matrix(0.28318084,0,0,0.28300253,153.26063,218.25214)"
         id="path4330"
         d="m -132.79217,243.51722 8.4034,1.6806 2.1008,6.3026 3.7815,-5.042 6.7227,-3.7816 0.4202,4.6219 10.5042,0 -1.6807,-2.9412 14.285798,4.6219 4.6218,-3.3614 5.042,2.521 4.2017,-7.563 3.7815,7.9832 7.9832,-8.8235 5.042,5.042 10.9244,0.4201 -4.2017,-4.6218 11.7647,-1.6807 5.042,10.0841 c 0,0 7.9832,-7.5631 -1.6806,-24.3698 -9.6639,-16.8067 -18.9076,-26.0504 -18.9076,-26.0504 0,0 28.9916,27.7311 28.5714,39.4958 -0.4201,11.7647 3.7815,-2.521 4.2017,-5.042 0.4202,-2.521 -7.563,-21.4286 -14.7059,-28.9916 -7.1428,-7.563 15.9664,14.7059 21.0084,28.1512 5.042,13.4454 7.1429005,17.6471 7.1429005,17.6471 0,0 0.4202,-19.3277 -10.0841005,-34.874 -10.5042,-15.5462 11.3446005,17.2269 12.6051005,26.8908 1.2605,9.6639 3.3613,10.9244 3.3613,10.9244 0,0 8.8236,-8.4034 0,-27.311 -8.8235005,-18.9075 -9.6638005,-21.4285 -9.6638005,-21.4285 0,0 10.0840005,14.7059 13.4453005,23.1092 3.3614,8.4034 5.8824,20.5883 5.8824,20.5883 0,0 5.8823995,-3.3614 3.7814995,-9.2437 -2.1007995,-5.8824 -3.7814995,-21.8488 -10.92439955,-29.4118 -7.14279995,-7.563 6.72270005,0.4202 12.60509955,18.9076 5.8823,18.4874 7.9832,-3.3614 7.9832,-3.3614 l -153.361398,18.9076 z"
         style="fill:#6d808d;fill-opacity:0.47058824;fill-rule:evenodd;stroke:none;filter:url(#filter5199)"
         inkscape:connector-curvature="0" />
      <path
         transform="matrix(0.28318084,0,0,0.28300253,153.26063,218.25214)"
         id="path4332"
         d="m -114.30477,185.95422 c 0,0 13.0252,3.3613 15.966398,7.9831 2.9412,4.6219 2.521,15.9664 2.521,15.9664 0,0 6.3025,2.9412 17.6471,1.2605 11.3445,-1.6806 21.8487,1.6807 23.9496,3.3614 2.1008,1.6807 -1.2605,-11.3446 11.3445,-10.9244 12.605,0.4202 48.7395005,10.9244 57.563,18.0672 8.8236,7.1429 8.8236,7.9832 9.2437,-3.7815 0.4202,-11.7647 0.8404,-15.126 5.8824,-16.8067 5.042,-1.6807 5.042,-10.9244 5.042,-10.9244 0,0 -6.3025,-1.6806 -9.2437,1.6807 -2.9412,3.3614 -4.6219,-5.8823 -7.563,-0.8403 -2.9412,5.042 -0.4202,-2.9412 -5.4622,2.521 -5.0419995,5.4622 -25.2101,6.3025 -28.5714,5.042 -3.3614,-1.2605 -28.1513,-15.9664 -55.8824,-18.0672 -27.7311,-2.1009 -43.277298,4.6218 -42.436998,5.4622 z"
         style="fill:#4d616c;fill-opacity:0.58823529;fill-rule:evenodd;stroke:none;filter:url(#filter5195)"
         inkscape:connector-curvature="0" />
      <path
         transform="matrix(0.28318084,0,0,0.28300253,153.26063,218.25214)"
         id="path4334"
         d="m 39.266728,252.76092 c 6.72264,-2.7311 7.56298,0 6.72264,-2.7311 -0.84033,-2.7311 -1.68064,-3.7815 0.42017,-4.2017 2.10084,-0.4202 2.52101,0 2.31093,-2.521 -0.21009,-2.521 -0.42017,-2.3109 1.68067,-3.5714 2.10084,-1.2605 0.42017,-3.3614 2.52101,-4.6219 2.10084,-1.2605 -0.42017,-2.1008 0.84033,-4.6218 1.26051,-2.521 -0.21008,-4.832 0.84034,-6.5126 1.05042,-1.6807 -0.21009,-4.4118 0.63025,-6.9328 0.84034,-2.521 -0.21008,-2.1009 -1.68067,-4.4118 -1.47059,-2.3109 -1.26051,-7.3529 -1.26051,-7.3529 0,0 -9.24366,-9.4538 -13.65546,-10.5042 -4.4118,-1.0504 27.94118,12.1849 0.6303,57.9832 z"
         style="fill:#acbec0;fill-opacity:0.58823529;fill-rule:evenodd;stroke:none;filter:url(#filter5207)"
         inkscape:connector-curvature="0" />
      <path
         transform="matrix(0.28318084,0,0,0.28300253,153.26063,218.25214)"
         id="path4336"
         d="m 31.913728,253.81132 c 0,0 1.2605,-4.4118 -6.3025,-11.5546 -7.563,-7.1429 -7.3529,-7.1429 -7.3529,-7.1429 0,0 14.9159,14.4958 15.7563,16.3866 0.8403,1.8907 -6.7227,-17.0168 -11.1345,-20.7984 -4.4118,-3.7815 7.9832,5.6723 10.7143,14.2858 2.7311,8.6134 4.6218,-0.4202 4.6218,-0.4202 0,0 1.0505,-2.7311 -2.521,-7.3529 -3.5714,-4.6219 -2.9411,-3.5715 1.2605,-0.6303 4.2017,2.9412 9.24372,1.6807 4.6219,-3.3613 -4.6219,-5.0421 5.25208,-0.6303 5.25208,-0.6303 0,0 5.46218,-1.4706 -2.10088,-7.1429 -7.563,-5.6722 -16.1764,-8.1932 -16.1764,-8.1932 0,0 13.0252,2.9411 17.43694,6.7227 4.41176,3.7815 4.20168,1.2605 4.20168,1.2605 0,0 -5.46222,-7.7731 -8.82352,-9.2437 -3.3613,-1.4706 7.14285,1.8907 7.98318,2.3109 0.84034,0.4202 2.10084,-4.4118 -3.78151,-6.5126 -5.88237,-2.1009 -6.51257,-2.1009 -6.51257,-2.1009 0,0 -2.311,0 2.7311,-1.2605 5.04198,-1.2605 -1.8908,-7.9832 -1.8908,-7.9832 l -5.2521,-5.4621 c 0,0 18.4874,10.084 16.38656,26.0504 -2.10084,15.9664 -4.20168,18.9075 -19.11766,32.7731 z"
         style="fill:#8e9fa9;fill-opacity:0.78431373;fill-rule:evenodd;stroke:none;filter:url(#filter5203)"
         inkscape:connector-curvature="0" />
      <path
         transform="matrix(-0.25998029,0.11218634,-0.11225702,-0.25981659,166.54917,389.02654)"
         id="path4338"
         d="m 50.805233,458.43776 c 0,0 15.966384,1.2605 17.016803,2.31092 1.05042,1.05042 30.252098,1.05042 30.252098,0 0,-1.05042 12.184866,0.42017 12.815126,-0.42017 0.63025,-0.84033 0.42017,-3.36134 -0.84034,-4.62184 -1.2605,-1.26051 -0.21008,-3.78152 1.26051,-3.9916 1.47058,-0.21008 -5.67227,-0.42017 -5.67227,-0.42017 0,0 1.05042,4.20168 0.21008,4.41177 -0.84034,0.21008 -9.663866,1.68067 -8.613446,-0.42017 1.05043,-2.10084 3.151266,-5.2521 3.151266,-5.2521 l -9.243696,0 c 0,0 1.89075,2.52101 1.05042,4.41176 -0.84034,1.89076 -2.521,3.78151 -3.99159,3.15126 -1.47059,-0.63025 -2.100852,-4.83193 -1.05042,-5.67227 1.05042,-0.84033 2.73109,-2.31092 0.84034,-3.57143 -1.890772,-1.2605 0.42017,-3.78151 -2.731108,-4.20168 -3.15126,-0.42016 -4.41176,-3.99159 -4.62184,-5.04201 -0.21009,-1.05042 1.2605,-4.41177 -1.89076,-4.41177 -3.15126,0 -9.45378,-1.68067 -8.40336,1.89076 1.05042,3.57143 2.10084,7.35294 0.63025,7.14286 -1.47059,-0.21009 -3.99159,-0.84034 -7.773109,-5.04202 -3.781514,-4.20168 -4.201684,-5.46219 -4.411764,-3.57143 -0.21008,1.89076 -7.14286,1.47059 -4.62185,2.94118 2.52101,1.47059 2.31093,4.62185 4.83193,3.99159 2.521014,-0.63025 0.42017,2.10084 0.42017,2.10084 0,0 0.21009,1.05042 1.470594,1.47059 1.2605,0.42017 0.63025,1.68067 -1.470594,3.15126 -2.10084,1.47059 -5.2521,1.05042 -5.2521,-0.42017 0,-1.47058 -1.2605,-3.57142 -2.94118,-2.10084 -1.680668,1.47059 1.05043,3.57143 0.84034,3.9916 -0.21008,0.42017 -0.84034,2.10084 -1.2605,8.19328 z"
         style="fill:#ffffff;fill-opacity:0.575;fill-rule:evenodd;stroke:none;filter:url(#filter5316)"
         inkscape:connector-curvature="0" />
      <path
         transform="matrix(0.28318084,0,0,0.28300253,153.26063,218.25214)"
         id="path4340"
         d="m -314.30477,244.77772 c 0,0 35.7143,13.4454 60.5042,16.80671 24.79,3.36134 -8.8235,-10.92441 -8.8235,-10.92441 0,0 -4.6218,0 -6.3025,2.521 -1.6807,2.5211 5.042,3.7816 -6.3025,2.1009 -11.3446,-1.6807 -15.5463,-13.0252 -39.0757,-10.5042 z"
         style="fill:#666666;fill-opacity:0.78431373;fill-rule:evenodd;stroke:none;filter:url(#filter5330)"
         inkscape:connector-curvature="0" />
      <g
         transform="matrix(0.31924144,0,0,0.29333325,55.901825,241.10998)"
         id="g4342">
        <path
           style="fill:#000000;fill-opacity:0.60833333;fill-rule:evenodd;stroke:none;filter:url(#filter7809)"
           d="m 323.22545,-431.11699 c 8.60013,-3.36271 19.05999,-4.52554 27.20463,-9.11259 3.98192,-3.09607 6.79837,-6.75779 6.57694,-11.84996 0.31775,-3.98486 -0.90698,-17.74373 -1.70136,-21.61253 -0.99793,-4.55839 -4.43905,-9.30212 -4.67194,-10.92484 7.13277,11.543 6.84129,27.69302 6.98366,31.67207 -0.15602,5.1317 -1.60631,10.52043 -6.20764,13.18632 -3.09263,1.66616 -6.43171,2.83859 -9.68121,4.16831 -5.94752,2.23323 -12.13507,4.04866 -18.50308,4.47322 z"
           id="path4344"
           sodipodi:nodetypes="ccccccccc"
           transform="matrix(1.1033137,-0.05457261,0.05406489,1.0216668,2.5121077,624.79771)"
           inkscape:connector-curvature="0" />
        <path
           style="fill:#000000;fill-opacity:1;fill-rule:evenodd;stroke:none;filter:url(#filter7797)"
           d="m 323.22545,-431.11699 c 8.60013,-3.36271 19.05999,-4.52554 27.20463,-9.11259 3.98192,-3.09607 6.79837,-6.75779 6.57694,-11.84996 0.31775,-3.98486 -0.90698,-17.74373 -1.70136,-21.61253 -0.99793,-4.55839 -4.43905,-9.30212 -4.67194,-10.92484 7.13277,11.543 6.84129,27.69302 6.98366,31.67207 -0.15602,5.1317 -1.60631,10.52043 -6.20764,13.18632 -3.09263,1.66616 -6.43171,2.83859 -9.68121,4.16831 -5.94752,2.23323 -12.13507,4.04866 -18.50308,4.47322 z"
           id="path4346"
           sodipodi:nodetypes="ccccccccc"
           transform="matrix(1.042694,-0.05157421,0.05109439,0.9655331,20.265948,595.72535)"
           inkscape:connector-curvature="0" />
      </g>
    </g>
  </g>
</svg>
